<svg width="24" height="25" viewBox="0 0 24 25" fill="none" xmlns="http://www.w3.org/2000/svg">
<path d="M4.82667 10.9351C6.74667 14.5905 9.84 17.5743 13.6133 19.4472L16.5467 16.6055C16.9067 16.2568 17.44 16.1405 17.9067 16.2955C19.4 16.7735 21.0133 17.0318 22.6667 17.0318C23.4 17.0318 24 17.613 24 18.3235V22.8314C24 23.5418 23.4 24.123 22.6667 24.123C10.1467 24.123 0 14.2935 0 2.16471C0 1.4543 0.6 0.873047 1.33333 0.873047H6C6.73333 0.873047 7.33333 1.4543 7.33333 2.16471C7.33333 3.7793 7.6 5.3293 8.09333 6.77596C8.24 7.22805 8.13333 7.7318 7.76 8.09346L4.82667 10.9351Z" fill="white"/>
</svg>
