<svg width="31" height="31" viewBox="0 0 31 31" fill="none" xmlns="http://www.w3.org/2000/svg">
<path fill-rule="evenodd" clip-rule="evenodd" d="M31 15.5C31 24.0605 24.0605 31 15.5 31C6.93959 31 0 24.0605 0 15.5C0 6.93959 6.93959 0 15.5 0C24.0605 0 31 6.93959 31 15.5ZM16.7917 6.72469C16.7917 6.01133 16.2133 5.43303 15.5 5.43303C14.7867 5.43303 14.2083 6.01133 14.2083 6.72469V16.0656V16.7433L14.7658 17.1284L21.0783 21.4887C21.6652 21.8941 22.4697 21.7468 22.8752 21.1599C23.2807 20.573 23.1334 19.7685 22.5465 19.3631L16.7917 15.3879V6.72469Z" fill="white"/>
</svg>
