<svg width="24" height="25" viewBox="0 0 24 25" fill="none" xmlns="http://www.w3.org/2000/svg">
<g opacity="0.6">
<path d="M12 9.94531C10.0116 9.94531 8.4 11.5408 8.4 13.5078C8.4 15.4755 10.0116 17.0703 12 17.0703C13.9879 17.0703 15.6 15.4755 15.6 13.5078C15.6 11.5408 13.9879 9.94531 12 9.94531ZM21.6 6.38281H18.72C18.324 6.38281 17.8973 6.07881 17.7722 5.70689L17.0278 3.496C16.9022 3.12431 16.476 2.82031 16.08 2.82031H7.92C7.524 2.82031 7.09728 3.12431 6.97224 3.49624L6.22776 5.70713C6.10224 6.07881 5.676 6.38281 5.28 6.38281H2.4C1.08 6.38281 0 7.45156 0 8.75781V19.4453C0 20.7516 1.08 21.8203 2.4 21.8203H21.6C22.92 21.8203 24 20.7516 24 19.4453V8.75781C24 7.45156 22.92 6.38281 21.6 6.38281ZM12 19.4453C8.68632 19.4453 6 16.787 6 13.5078C6 10.2289 8.68632 7.57031 12 7.57031C15.3132 7.57031 18 10.2289 18 13.5078C18 16.787 15.3132 19.4453 12 19.4453ZM20.76 10.4187C20.2963 10.4187 19.92 10.0467 19.92 9.5874C19.92 9.12855 20.2963 8.75615 20.76 8.75615C21.2242 8.75615 21.6 9.12855 21.6 9.5874C21.6 10.0467 21.2239 10.4187 20.76 10.4187Z" fill="#334960"/>
</g>
</svg>
