<svg width="24" height="25" viewBox="0 0 24 25" fill="none" xmlns="http://www.w3.org/2000/svg">
<path fill-rule="evenodd" clip-rule="evenodd" d="M11.7006 5.17192C12.002 5.17698 12.3014 5.12444 12.5814 5.01737C12.8614 4.91031 13.1163 4.75086 13.3313 4.54833C13.5463 4.3458 13.7171 4.10425 13.8337 3.83778C13.9502 3.5713 14.0103 3.28524 14.0103 2.99628C14.0103 2.70732 13.9502 2.42126 13.8337 2.15479C13.7171 1.88831 13.5463 1.64676 13.3313 1.44423C13.1163 1.2417 12.8614 1.08226 12.5814 0.97519C12.3014 0.868125 12.002 0.815588 11.7006 0.820646C11.1056 0.830631 10.5384 1.06424 10.1213 1.47116C9.70416 1.87809 9.47042 2.42578 9.47042 2.99628C9.47042 3.56679 9.70416 4.11448 10.1213 4.5214C10.5384 4.92833 11.1056 5.16193 11.7006 5.17192ZM18.9798 8.04921L18.4944 10.2205H15.9539L12.8731 6.5139C12.7493 6.3652 12.5922 6.24509 12.4135 6.16247C12.2347 6.07984 12.0389 6.03682 11.8404 6.03657L8.92094 6.03524C8.41883 6.03524 7.98557 6.03524 4.86304 8.92787C4.61899 9.15397 4.47505 9.46144 4.46108 9.78652L4 14.4225H6.64059L7.07941 10.4012C7.47425 10.0426 7.87487 9.68988 8.28113 9.34319L7.98209 13.4011L7.97514 13.4005L7.89794 14.5378L7.87708 14.8205H7.87917L7.61838 18.6497L6.28104 24.8203H9.12192L10.3619 19.1004C10.3752 19.0397 10.384 18.9782 10.3883 18.9164L10.5921 15.9144L12.4503 19.0324L11.0838 24.8203H13.9358L15.2828 19.1151C15.3593 18.7897 15.3065 18.4484 15.134 18.1591L12.8189 14.2751L13.0734 10.8198L14.2842 12.2765C14.5345 12.5785 14.9149 12.7545 15.3169 12.7545H17.9276L15.2286 24.8203H16.2961L20 8.25854L18.9798 8.04921Z" fill="#334960"/>
</svg>
