<svg width="24" height="25" viewBox="0 0 24 25" fill="none" xmlns="http://www.w3.org/2000/svg">
<g clip-path="url(#clip0_2480_10990)">
<path d="M7.82973 2.34375C6.70858 2.48681 5.71316 3.40021 5.37787 4.59423C5.29928 4.86935 5.2888 5.73323 5.29404 13.7392V22.5871H4.4558H3.61755V16.0997V9.60691L3.4761 9.49136C3.36084 9.39782 3.29273 9.38131 3.11984 9.40883C2.7112 9.48036 2.52259 9.55189 2.23445 9.75548C1.852 10.0251 1.59528 10.3772 1.46955 10.8064C1.37001 11.1421 1.36477 11.3182 1.36477 16.8646V22.5761L0.950884 22.5926C0.631303 22.6091 0.500327 22.6421 0.385069 22.7301C-0.128356 23.1318 -0.128356 23.8031 0.385069 24.2048L0.531762 24.3203H12H23.4682L23.6149 24.2048C24.1284 23.8031 24.1284 23.1318 23.6149 22.7301C23.4997 22.6421 23.3687 22.6091 23.0491 22.5926L22.6352 22.5761V16.8701C22.6352 10.5368 22.6509 10.845 22.2842 10.2782C21.9908 9.82151 21.5874 9.55189 21.0216 9.43634C20.7125 9.37031 20.6811 9.37581 20.5501 9.47485L20.4086 9.5849L20.3929 16.0887L20.3825 22.5871H19.5442H18.706V13.7392C18.706 5.70572 18.7007 4.86935 18.6221 4.59423C18.4859 4.10452 18.2449 3.65882 17.9253 3.31217C17.5534 2.89399 17.1919 2.65189 16.6942 2.47581L16.296 2.33275L12.1938 2.32174C9.94106 2.31624 7.97642 2.32725 7.82973 2.34375ZM10.7845 6.31098C11.0989 6.51457 11.1618 6.73466 11.1618 7.67557V8.50093H12H12.8382V7.65907C12.8382 6.89423 12.8487 6.80619 12.9587 6.60811C13.2783 6.00835 14.1166 6.02485 14.41 6.63562C14.5095 6.83371 14.5147 6.96576 14.5147 9.38131C14.5147 11.7969 14.5095 11.9289 14.41 12.127C14.1113 12.7488 13.2417 12.7488 12.943 12.127C12.854 11.9454 12.8382 11.8024 12.8382 11.0871V10.2617H12H11.1618V11.0871C11.1618 11.8024 11.146 11.9454 11.057 12.127C10.7583 12.7488 9.88867 12.7488 9.59005 12.127C9.4905 11.9289 9.48527 11.7969 9.48527 9.38131C9.48527 6.98777 9.4905 6.83371 9.58481 6.63562C9.71054 6.38801 9.78913 6.31098 10.0458 6.21194C10.2816 6.1239 10.5488 6.15691 10.7845 6.31098ZM12.8016 16.5894C13.3726 16.815 13.8808 17.3653 14.1113 18.0036C14.2213 18.3062 14.2266 18.4217 14.2423 20.4521L14.258 22.5871H12.0052H9.74722V20.6447C9.74722 19.4727 9.76817 18.5703 9.80485 18.3722C9.96202 17.4808 10.5959 16.7545 11.4237 16.5069C11.8062 16.3969 12.4034 16.4299 12.8016 16.5894Z" fill="#334960"/>
</g>
<defs>
<clipPath id="clip0_2480_10990">
<rect width="24" height="24" fill="white" transform="translate(0 0.320312)"/>
</clipPath>
</defs>
</svg>
