<svg width="24" height="25" viewBox="0 0 24 25" fill="none" xmlns="http://www.w3.org/2000/svg">
<g opacity="0.6">
<path d="M12 0.820312C5.37305 0.820312 0 6.19336 0 12.8203C0 19.4473 5.37305 24.8203 12 24.8203C18.6284 24.8203 24 19.4473 24 12.8203C24 6.19336 18.6284 0.820312 12 0.820312ZM15.2724 17.4536C14.6821 18.1157 13.8296 18.5054 12.7148 18.6226V20.3203H11.2939V18.6314C9.43505 18.441 8.28511 17.3599 7.8413 15.3911L10.0386 14.8184C10.2422 16.0561 10.916 16.6743 12.06 16.6743C12.5947 16.6743 12.9902 16.5425 13.2422 16.2773C13.4941 16.0122 13.6201 15.6929 13.6201 15.3179C13.6201 14.9297 13.4941 14.6352 13.2422 14.436C12.9902 14.2354 12.4292 13.9819 11.5605 13.6743C10.7798 13.4033 10.1689 13.1367 9.72947 12.8701C9.29002 12.6065 8.93259 12.2359 8.65866 11.7598C8.38472 11.2822 8.24705 10.7256 8.24705 10.0927C8.24705 9.26217 8.49314 8.51362 8.98242 7.84861C9.4717 7.18505 10.2422 6.77925 11.294 6.63131V5.32031H12.7149V6.63136C14.3028 6.82181 15.3311 7.71975 15.7984 9.32667L13.8413 10.1294C13.459 9.02784 12.8701 8.47706 12.0704 8.47706C11.669 8.47706 11.3467 8.60011 11.105 8.8462C10.8618 9.0923 10.7403 9.39112 10.7403 9.74123C10.7403 10.0987 10.8575 10.3726 11.0918 10.5645C11.3248 10.755 11.8272 10.9908 12.5948 11.2735C13.4385 11.5811 14.1007 11.8726 14.5797 12.1465C15.0601 12.4205 15.4425 12.7999 15.7296 13.2818C16.0152 13.7652 16.1587 14.3292 16.1587 14.9752C16.1587 15.9668 15.8628 16.793 15.2724 17.4536Z" fill="#334960"/>
</g>
</svg>
