<svg width="24" height="25" viewBox="0 0 24 25" fill="none" xmlns="http://www.w3.org/2000/svg">
<g clip-path="url(#clip0_2480_10995)">
<path d="M0.36166 0.918846C0.249546 0.975151 0.146775 1.08307 0.0907187 1.20037C-0.0073806 1.38336 -0.0073806 1.43497 0.00663358 4.70536C0.0253192 8.00389 0.0253192 8.02266 0.12809 8.37456C0.272903 8.84846 0.599901 9.46782 0.884856 9.79626C1.12777 10.0825 1.52484 10.4438 1.73505 10.5705L1.86585 10.6455L1.87519 17.1253L1.88921 23.6004L2.01066 23.8631C2.1835 24.2338 2.43109 24.4872 2.79079 24.6655C3.0664 24.8015 3.14581 24.8203 3.50084 24.8203C3.85586 24.8203 3.93528 24.8015 4.21089 24.6655C4.57059 24.4872 4.81817 24.2338 4.99101 23.8631L5.11247 23.6004L5.12648 17.1112C5.13115 13.5452 5.15451 10.6268 5.1732 10.6268C5.19188 10.6268 5.34604 10.5142 5.51421 10.3781C5.99536 9.99802 6.32703 9.58043 6.58396 9.05492C6.99971 8.20565 6.97168 8.45433 6.99037 4.70536C7.00906 1.43497 7.00906 1.38336 6.91096 1.20037C6.80351 0.984535 6.53724 0.820312 6.30368 0.820312C6.07011 0.820312 5.80384 0.984535 5.69639 1.19568C5.60764 1.37398 5.60297 1.46782 5.60297 3.68248V5.9816H4.90226H4.20155V3.68248C4.20155 1.46782 4.19688 1.37398 4.10812 1.19568C4.00068 0.984535 3.73441 0.820312 3.50084 0.820312C3.26727 0.820312 3.001 0.984535 2.89356 1.19568C2.8048 1.37398 2.80013 1.46782 2.80013 3.68248V5.9816H2.09942H1.39871V3.68248C1.39871 1.46782 1.39404 1.37398 1.30528 1.19568C1.13244 0.853157 0.712014 0.731161 0.36166 0.918846Z" fill="#334960"/>
<path d="M22.9112 0.938495C21.7113 1.46577 20.7069 2.56122 20.2758 3.82031C19.9958 4.63849 20.0003 4.57031 20.0003 9.95668C20.0003 15.4612 19.9781 15.1203 20.3336 15.4794C20.6536 15.8067 20.7336 15.8203 22.4757 15.8203H24V8.59304C24 1.43395 24 1.36122 23.9111 1.18395C23.8089 0.974858 23.5511 0.820312 23.3245 0.820312C23.2445 0.824859 23.0578 0.874859 22.9112 0.938495Z" fill="#334960"/>
<path d="M12.0184 3.87115C11.139 3.96819 9.99669 4.26393 9.23676 4.60127L8.91176 4.7399V6.2787C8.91176 7.12434 8.88787 7.96074 8.86397 8.14096C8.69191 9.29622 8.08971 10.4515 7.26765 11.2047L7 11.4496V15.5854V19.7166L7.50662 20.077C8.67757 20.9134 9.97757 21.4541 11.4449 21.7129C12.2574 21.8561 13.7676 21.8561 14.5849 21.7129C16.4919 21.3802 18.1265 20.5715 19.5077 19.2822L20 18.8247V17.9699V17.115L19.7706 16.8793C19.5029 16.6067 19.3261 16.3294 19.1779 15.9459L19.068 15.6732L19.0537 10.8119L19.0393 5.9506L18.7382 5.71955C16.9316 4.32863 14.3507 3.61699 12.0184 3.87115ZM14.0974 8.81101C15.5934 9.18531 16.7739 10.3267 17.1849 11.7916C17.271 12.0919 17.2901 12.286 17.2901 12.8313C17.2901 13.3766 17.271 13.5707 17.1849 13.871C16.7739 15.3359 15.6125 16.4588 14.0974 16.8562C13.7868 16.9394 13.586 16.9579 13.0221 16.9579C12.4581 16.9579 12.2574 16.9394 11.9467 16.8562C10.4316 16.4588 9.27022 15.3359 8.85919 13.871C8.70625 13.3396 8.70625 12.323 8.85919 11.7916C9.2989 10.2158 10.6085 9.04206 12.2478 8.74169C12.7449 8.64927 13.5956 8.68162 14.0974 8.81101Z" fill="#334960"/>
<path d="M12.3525 9.89215C11.0211 10.1775 10 11.4493 10 12.8162C10 14.4384 11.3815 15.8203 13.0032 15.8203C14.3847 15.8203 15.646 14.7939 15.9313 13.442C16.1466 12.4206 15.8512 11.4543 15.1105 10.7083C14.3647 9.96225 13.3736 9.67185 12.3525 9.89215Z" fill="#334960"/>
<path d="M21.0128 20.722L21.0256 23.619L21.1667 23.9286C21.3291 24.2843 21.5598 24.5292 21.8974 24.7002C22.0983 24.8018 22.1966 24.8203 22.5 24.8203C22.8248 24.8203 22.8974 24.8018 23.1496 24.6678C23.4786 24.4923 23.7051 24.2428 23.8632 23.8777L23.9744 23.619L23.9872 20.7173L24 17.8203H22.5H21L21.0128 20.722Z" fill="#334960"/>
</g>
<defs>
<clipPath id="clip0_2480_10995">
<rect width="24" height="24" fill="white" transform="translate(0 0.820312)"/>
</clipPath>
</defs>
</svg>
