<svg width="24" height="23" viewBox="0 0 24 23" fill="none" xmlns="http://www.w3.org/2000/svg">
<path fill-rule="evenodd" clip-rule="evenodd" d="M2.58207 11.7057C3.02411 11.7057 3.44805 11.5227 3.76062 11.197C4.07318 10.8714 4.24878 10.4296 4.24878 9.96903C4.24878 9.50844 4.07318 9.06672 3.76062 8.74103C3.44805 8.41534 3.02411 8.23237 2.58207 8.23237C2.14003 8.23237 1.7161 8.41534 1.40353 8.74103C1.09096 9.06672 0.915359 9.50844 0.915359 9.96903C0.915359 10.4296 1.09096 10.8714 1.40353 11.197C1.7161 11.5227 2.14003 11.7057 2.58207 11.7057ZM2.91541 12.4837C2.36273 12.4837 1.86272 12.7171 1.50071 13.095L0 14.137V17.6103H0.915359V22.8203H3.78211V18.7357H4.91547V14.5677C4.91547 14.015 4.70475 13.4849 4.32967 13.0941C3.95458 12.7033 3.44586 12.4837 2.91541 12.4837ZM20.6812 17.6465C20.3534 17.6463 20.0391 17.5105 19.8072 17.2691C19.5753 17.0276 19.4449 16.7001 19.4445 16.3586C19.4445 15.6479 19.9999 15.07 20.6812 15.07C21.3619 15.07 21.9166 15.6479 21.9166 16.3586C21.9163 16.7 21.7859 17.0274 21.5542 17.2688C21.3225 17.5103 21.0089 17.6461 20.6812 17.6465ZM12.6884 19.372H16.5591V18.0758H12.6884V19.372ZM8.56824 17.6465C8.24053 17.6461 7.92634 17.5103 7.69462 17.2688C7.46289 17.0274 7.33256 16.7 7.3322 16.3586C7.3322 15.6479 7.88689 15.07 8.56824 15.07C9.25026 15.07 9.80494 15.6479 9.80494 16.3586C9.80441 16.7001 9.67392 17.0274 9.44209 17.2689C9.21026 17.5103 8.89601 17.6461 8.56824 17.6465ZM20.8779 5.38773L20.8406 12.1135H8.40957L8.3709 5.38773H20.8779ZM10.7056 3.62884H18.5438V2.20686H10.7063L10.7056 3.62884ZM23.2653 5.9247H22.8546L22.872 2.77926L22.8253 2.62297C22.6689 2.10329 22.3583 1.64874 21.9381 1.32478C21.5179 1.00083 21.0099 0.824192 20.4872 0.820312H8.76224C8.23956 0.824192 7.73156 1.00083 7.31138 1.32478C6.89121 1.64874 6.58056 2.10329 6.42418 2.62297L6.37751 2.77926L6.39418 5.9247H5.98417C5.57749 5.9247 5.24881 6.26787 5.24881 6.69092V9.42233C5.24881 9.78148 5.48815 10.0927 5.82483 10.1698L6.41951 10.3087L6.43151 12.3712H6.43551C6.21617 13.2173 6.10217 15.2777 6.10084 15.9126L6.09684 19.6985H6.0955V21.9402C6.0955 22.4264 6.47418 22.8203 6.94086 22.8203H8.54757C9.01425 22.8203 9.39226 22.4264 9.39226 21.9402V21.0809H8.15623V20.2223H21.0926V21.0809H19.8572V21.9402C19.8572 22.4264 20.2352 22.8203 20.7019 22.8203H22.308C22.7746 22.8203 23.1526 22.4264 23.1526 21.9402V19.6992L23.1473 15.9126C23.1473 15.2777 23.0326 13.2173 22.8126 12.3712H22.818L22.8293 10.308L23.424 10.1691C23.7613 10.0927 24 9.78148 24 9.42233V6.69022C24 6.26648 23.6707 5.9247 23.2653 5.9247Z" fill="#334960"/>
</svg>
