<svg width="24" height="25" viewBox="0 0 24 25" fill="none" xmlns="http://www.w3.org/2000/svg">
<path d="M23.4732 8.7824L21.6784 7.002C21.1467 7.53361 20.5008 7.79961 19.7413 7.79961C18.9816 7.79961 18.3361 7.53361 17.8045 7.002C17.2725 6.4702 17.0069 5.8246 17.0069 5.06486C17.0069 4.30507 17.2728 3.65947 17.8045 3.12762L16.0238 1.34723C15.6721 0.996017 15.2426 0.820312 14.7348 0.820312C14.2268 0.820312 13.7973 0.996067 13.4459 1.34723L0.527114 14.2517C0.175655 14.6032 0 15.0331 0 15.5406C0 16.0486 0.175655 16.4781 0.527114 16.8296L2.30751 18.6245C2.83931 18.0928 3.48506 17.8268 4.2447 17.8268C5.00429 17.8268 5.64989 18.0925 6.18164 18.6245C6.7133 19.1561 6.9792 19.8018 6.9792 20.5615C6.9792 21.3212 6.71345 21.9665 6.18164 22.4985L7.9764 24.2932C8.32781 24.6446 8.75755 24.8202 9.26555 24.8202C9.77361 24.8202 10.2033 24.6446 10.5545 24.2932L23.4732 11.3603C23.8245 11.009 24 10.5794 24 10.0713C24 9.56334 23.8245 9.13381 23.4732 8.7824ZM19.6131 11.631L10.8108 20.4331C10.6401 20.6043 10.4264 20.6897 10.1699 20.6897C9.91359 20.6897 9.69998 20.6043 9.52906 20.4331L4.37281 15.2774C4.19237 15.0967 4.10222 14.8832 4.10222 14.6365C4.10222 14.3896 4.19237 14.1757 4.37281 13.9952L13.1751 5.19297C13.3462 5.02201 13.5599 4.93645 13.8164 4.93645C14.0725 4.93645 14.2862 5.02201 14.4573 5.19297L19.6132 10.349C19.7938 10.5296 19.884 10.7432 19.884 10.9901C19.8839 11.2369 19.7938 11.4505 19.6131 11.631Z" fill="#334960"/>
</svg>
