<svg width="28" height="28" viewBox="0 0 28 28" fill="none" xmlns="http://www.w3.org/2000/svg">
<path d="M9.37962 0.174505C7.64503 0.78013 6.96783 2.00326 6.36191 5.73201L6.10053 7.26389L5.13819 7.52514C4.0808 7.82201 2.67886 8.33264 1.9779 8.67701C1.24129 9.04514 0.647251 9.67451 0.290828 10.4464C0.00568942 11.0995 -0.0299529 11.2895 0.0175702 12.0851C0.0888549 13.3439 0.457159 13.9851 1.95414 15.4933C3.61745 17.1676 4.88869 17.7851 7.52622 18.2126L7.97769 18.2839L6.97971 19.317C6.42131 19.887 5.9342 20.4927 5.89856 20.6708C5.72034 21.3714 6.29062 22.072 7.03911 22.072C7.46682 22.072 7.59751 21.9889 8.60737 21.0033L9.70041 19.9345L9.84297 20.9083C10.2232 23.4139 11.4588 25.4208 13.6448 27.0714C14.8329 27.9858 15.9616 28.2114 17.2209 27.8077C17.9457 27.5702 18.908 26.7627 19.2526 26.0858C19.6446 25.3139 20.2624 23.6158 20.4882 22.7014L20.6901 21.8464L21.2485 21.7752C22.3534 21.6327 24.3138 21.2289 25.086 21.0033C26.6424 20.5283 27.6404 19.5426 27.9136 18.1889C28.0918 17.3458 27.9968 16.6095 27.6047 15.802C27.3077 15.1845 27.1057 14.9945 24.9672 13.2251L24.6821 12.9758L25.1098 12.192C25.9652 10.6364 26.6543 8.33264 27.0226 5.72013C27.177 4.63951 27.1889 4.25951 27.082 3.72513C26.8206 2.46638 25.7751 1.35013 24.492 0.982006C23.8979 0.803881 23.6722 0.792006 22.6267 0.92263C20.0604 1.24326 17.7199 1.88451 15.9853 2.77513C14.9279 3.30951 14.9279 3.30951 14.7497 3.06013C14.227 2.31201 13.1102 1.00576 12.7656 0.744505C11.8271 0.0320053 10.4727 -0.193621 9.37962 0.174505ZM11.1142 2.51388C11.435 2.69201 12.4924 3.95076 13.2884 5.09076C14.3101 6.56326 14.7379 6.63451 16.0091 5.54201C17.1378 4.58013 20.1555 3.59451 23.0663 3.25013C23.9098 3.15513 24.4088 3.38076 24.6583 3.98638C24.8246 4.36638 24.8128 4.55638 24.5395 6.13576C24.0643 8.98576 23.3514 10.8739 22.2584 12.2039C21.4149 13.2251 21.5337 13.7951 22.7455 14.5908C23.8029 15.2914 25.383 16.6095 25.5256 16.9183C25.8107 17.5476 25.5256 18.3076 24.9078 18.5689C24.195 18.8658 21.7356 19.3526 20.5832 19.4239C19.3357 19.4951 18.813 19.6733 18.6466 20.0889C18.5872 20.2314 18.4565 20.7895 18.3496 21.3358C18.1001 22.6302 17.3041 24.8745 16.9714 25.2308C16.6388 25.587 16.021 25.7058 15.5339 25.5039C14.9874 25.2783 13.3003 23.5445 12.9082 22.8202C12.3855 21.8464 12.1122 20.5402 12.0766 18.9608L12.0528 17.5595L12.6706 16.942L13.2884 16.3245L15.2725 16.7045C17.0546 17.037 17.2803 17.0608 17.6368 16.9183C18.3853 16.6095 18.5635 15.6595 17.9932 15.0658C17.7318 14.7926 17.4823 14.6976 16.5556 14.5314C15.9378 14.4245 15.4388 14.2939 15.4388 14.2583C15.4388 14.2226 16.0923 13.5339 16.8764 12.7264L18.3258 11.2658L18.2546 10.767C18.1595 10.0901 17.7437 9.72201 17.0784 9.72201C16.615 9.72201 16.52 9.79326 15.1299 11.1589L13.6805 12.5958L13.5498 11.9664C13.4785 11.6101 13.3953 11.1233 13.3478 10.862C13.3003 10.6126 13.1221 10.2326 12.9439 10.0308C12.6706 9.73389 12.5161 9.66264 12.1122 9.66264C11.6964 9.66264 11.5538 9.73389 11.2687 10.0545C11.0786 10.2683 10.9241 10.5414 10.9241 10.672C10.9241 10.8026 11.0905 11.7526 11.2924 12.7739L11.6489 14.6264L11.0311 15.2676L10.4014 15.897H9.16577C6.8609 15.897 5.26887 15.3745 3.95011 14.1751C2.56006 12.9164 2.09671 12.002 2.48877 11.2539C2.73827 10.7908 4.758 10.0189 6.77773 9.60326C7.37177 9.48451 7.96581 9.28264 8.08462 9.17576C8.36976 8.91451 8.54797 8.28514 8.54797 7.51326C8.54797 6.76514 8.82123 5.11451 9.15389 3.86763C9.34398 3.16701 9.48655 2.88201 9.75981 2.65638C10.14 2.33576 10.6984 2.27638 11.1142 2.51388Z" fill="#334960"/>
</svg>
