<svg width="28" height="28" viewBox="0 0 28 28" fill="none" xmlns="http://www.w3.org/2000/svg">
<path d="M19.5819 0.598619C17.0722 1.89929 15.33 3.53813 14.4406 5.39808C13.2345 7.9604 13.6 11.3031 15.464 14.7239C16.5117 16.6359 16.8894 16.7659 18.7169 15.8034C20.2885 14.984 21.2022 14.2947 22.3353 13.085C23.9069 11.3942 24.5038 9.87238 24.4917 7.67425C24.4795 5.71024 23.8947 3.73323 22.6642 1.52209C22.0672 0.442538 21.6043 0.000310898 21.0438 0.000310898C20.8733 0.000310898 20.2154 0.273451 19.5819 0.598619ZM21.1779 4.0584C21.7992 5.48913 22.0672 6.62071 22.0672 7.83033C22.0672 9.20904 21.6043 10.2496 20.4712 11.4332C19.6428 12.2916 17.8031 13.5663 17.596 13.4362C17.4255 13.3192 16.7188 11.5893 16.4264 10.5617C16.2071 9.79434 16.1584 9.37813 16.2071 8.46766C16.2681 6.95889 16.6457 6.16548 17.8397 4.95586C18.656 4.11042 20.191 3.00485 20.5443 2.99185C20.6296 2.99185 20.922 3.47309 21.1779 4.0584Z" fill="#334960"/>
<path d="M1.28241 8.32429C0.527057 8.48037 0.234662 8.90958 0.0762814 10.0282C-0.0820991 11.2248 0.0153659 13.644 0.283394 15.0097C0.929099 18.3654 2.37889 20.5376 4.79115 21.7862C6.4846 22.6707 7.55671 22.9178 10.1517 22.9828C12.7224 23.0609 13.2706 22.9568 13.6239 22.3455C14.1478 21.422 14.0503 17.416 13.4412 15.1788C12.369 11.2248 10.0177 9.10469 5.93636 8.38932C4.7546 8.19422 2.11086 8.14219 1.28241 8.32429ZM5.7658 10.9907C7.45925 11.3028 8.54354 11.8491 9.49383 12.8636C10.7974 14.2683 11.37 15.9332 11.5162 18.8337L11.5893 20.4595L9.83496 20.3815C8.77502 20.3425 7.78819 20.2254 7.3496 20.0953C4.14544 19.1458 2.67128 16.8176 2.45199 12.3824L2.37889 10.7956H3.53629C4.18199 10.7956 5.18101 10.8866 5.7658 10.9907Z" fill="#334960"/>
<path d="M21.5917 17.4418C18.5947 17.806 16.4748 20.2122 15.488 24.3744C15.1712 25.701 15.1712 25.7791 15.3661 26.2083C15.6098 26.7416 16.1337 27.0537 17.5591 27.496C19.4353 28.0813 21.4455 28.1593 22.8466 27.7171C24.4182 27.2228 25.9411 25.714 26.8304 23.776C27.4518 22.4364 28 20.5374 28 19.757C28 18.9636 27.732 18.6514 26.6721 18.2222C25.0517 17.5589 23.1024 17.2597 21.5917 17.4418ZM24.2233 20.1602C24.5278 20.2252 24.9299 20.3293 25.1004 20.4073L25.4294 20.5374L25.1979 21.2658C24.7959 22.5274 24.1014 23.776 23.4679 24.3874C22.7004 25.1287 21.9328 25.3889 20.6292 25.3759C19.618 25.3759 17.888 25.0377 17.888 24.8556C17.888 24.5955 18.3997 23.2038 18.753 22.4884C19.8495 20.3033 21.4942 19.6009 24.2233 20.1602Z" fill="#334960"/>
</svg>
