<svg width="28" height="28" viewBox="0 0 28 28" fill="none" xmlns="http://www.w3.org/2000/svg">
<path d="M10.1436 0.35614C9.87445 0.626316 9.78879 0.835089 9.78879 1.17895C9.78879 1.59649 9.91115 1.75614 11.2571 3.13158L12.7254 4.61754V7.79825V10.9789L10.1192 8.37544C7.53737 5.80877 7.48843 5.77193 6.98675 5.77193C5.97116 5.77193 5.42055 6.80351 5.97116 7.65088C6.09352 7.83509 7.29265 9.06316 8.63861 10.3772L11.0736 12.7596H7.90445L4.73533 12.7719L3.2303 11.2982C1.82316 9.91053 1.7008 9.82456 1.24807 9.82456C0.893228 9.82456 0.648508 9.91053 0.379316 10.1439C0.06118 10.414 0 10.5491 0 11.0035C0 11.5316 0.048944 11.6053 1.18689 12.7842L2.36155 14L1.18689 15.2158C0.06118 16.3579 0 16.4561 0 16.9351C0 17.6351 0.501676 18.1754 1.17466 18.1754C1.59068 18.1754 1.74975 18.0526 3.12018 16.7018L4.60073 15.2281H7.76986H10.9512L8.47954 17.7088C7.13358 19.0842 5.95893 20.3246 5.88551 20.4719C5.39607 21.4421 6.31377 22.486 7.36607 22.1667C7.5129 22.1175 8.78544 20.9386 10.1926 19.5509L12.7254 17.0211V20.1526V23.2719L11.4284 24.5614C10.7187 25.2737 10.058 25.9982 9.9601 26.1825C9.37277 27.3123 10.474 28.4175 11.5997 27.8281C11.7833 27.7298 12.3951 27.1772 12.9702 26.6L13.998 25.5439L15.246 26.7719C16.3473 27.8649 16.5308 28 16.9224 28C17.4485 28 18.0481 27.5333 18.146 27.0544C18.2561 26.4895 17.9502 26.0351 16.5308 24.6228L15.1726 23.2719V20.1772C15.1726 18.4702 15.2093 17.0702 15.2583 17.0702C15.3072 17.0702 16.5064 18.2246 17.9257 19.6491C20.3362 22.0561 20.5442 22.2281 20.948 22.2281C21.4619 22.2281 22.0737 21.7737 22.1961 21.3193C22.2328 21.1474 22.2083 20.8649 22.1471 20.6684C22.0737 20.4842 20.8746 19.1825 19.4797 17.7825L16.9469 15.2281H20.1282H23.2973L24.7779 16.7018C26.1361 18.0526 26.3074 18.1754 26.7234 18.1754C27.274 18.1754 27.7023 17.9053 27.8981 17.4386C28.1428 16.8368 27.947 16.4561 26.6989 15.1912L25.512 14L26.6989 12.7965C28.0082 11.4825 28.1917 11.1263 27.8491 10.4632C27.6044 9.98421 27.3107 9.82456 26.7234 9.82456C26.3074 9.82456 26.1483 9.94737 24.7779 11.2982L23.2973 12.7719H20.1282H16.9469L19.4797 10.2175C20.8746 8.81754 22.0737 7.51579 22.1471 7.33158C22.2083 7.13509 22.2328 6.85263 22.1961 6.6807C22.0737 6.22632 21.4619 5.77193 20.948 5.77193C20.5442 5.77193 20.3362 5.94386 17.9257 8.35088C16.5064 9.76316 15.3072 10.9298 15.2583 10.9298C15.2093 10.9298 15.1726 9.52983 15.1726 7.82281V4.72807L16.5798 3.31579C17.3996 2.49298 18.0359 1.74386 18.1093 1.52281C18.3662 0.761404 17.7911 0 16.9713 0C16.5186 0 16.3962 0.0859642 15.246 1.22807L14.0102 2.44386L12.7744 1.22807C11.5997 0.0614033 11.5141 0 11.0246 0C10.6086 0 10.4251 0.0736847 10.1436 0.35614Z" fill="#334960"/>
</svg>
