<svg width="28" height="28" viewBox="0 0 28 28" fill="none" xmlns="http://www.w3.org/2000/svg">
<path d="M13.4044 0.173742C12.9409 0.423121 12.834 0.684375 12.834 1.58689C12.834 2.2994 12.8696 2.40628 13.1786 2.72691C13.44 2.97629 13.642 3.07129 13.9629 3.07129C14.8659 3.07129 15.27 2.51315 15.1868 1.37314C15.1392 0.755626 15.0798 0.613124 14.759 0.328119C14.3312 -0.0518868 13.9034 -0.0993876 13.4044 0.173742Z" fill="#334960"/>
<path d="M4.19472 3.96187C3.80259 4.235 3.63623 4.86439 3.83824 5.35127C4.07589 5.92128 4.90769 6.63379 5.34736 6.63379C5.84643 6.63379 6.22668 6.43191 6.46434 6.01628C6.79706 5.47002 6.64258 4.98314 5.9415 4.33C5.4543 3.87874 5.27606 3.78374 4.90769 3.78374C4.65815 3.78374 4.33732 3.86687 4.19472 3.96187Z" fill="#334960"/>
<path d="M21.9709 4.36563C21.46 4.86439 21.3887 4.99501 21.3887 5.43439C21.3887 6.11128 21.8759 6.63379 22.5294 6.63379C22.8978 6.63379 23.0641 6.53879 23.6108 6.0044C24.1455 5.45814 24.2405 5.29189 24.2405 4.92376C24.2405 4.27063 23.7177 3.78374 23.0404 3.78374C22.6007 3.78374 22.47 3.85499 21.9709 4.36563Z" fill="#334960"/>
<path d="M12.7541 6.28414C10.437 6.66415 8.11983 8.37418 7.07414 10.4523C6.40871 11.7824 6.17105 12.9224 6.25423 14.4424C6.36117 16.5324 7.05038 18.0762 8.54761 19.5606C10.0567 21.0688 11.851 21.7931 14.0612 21.805C16.2833 21.8169 17.8994 21.14 19.5273 19.5012C20.6205 18.4087 21.1196 17.6012 21.5355 16.2593C22.6287 12.673 20.9414 8.74231 17.5904 7.09166C16.9844 6.79478 16.1288 6.47415 15.6654 6.37915C14.893 6.21289 13.4433 6.16539 12.7541 6.28414ZM15.4278 8.76606C16.2833 8.97981 17.0082 9.39544 17.7211 10.0486C20.0264 12.1624 20.0858 15.6299 17.8756 17.8506C15.1901 20.5344 10.8053 19.7625 9.09422 16.3187C8.66644 15.4399 8.54761 14.5456 8.54761 14.0535C8.54761 13.4746 8.66644 12.6492 9.09422 11.7467C10.2587 9.32419 12.8611 8.08917 15.4278 8.76606Z" fill="#334960"/>
<path d="M0.344601 13.1534C0.0950624 13.4147 0 13.6166 0 13.9372C0 14.7922 0.499078 15.1841 1.61606 15.1841C2.2102 15.1841 2.31715 15.1485 2.68551 14.7803C3.1133 14.3528 3.18459 13.9847 2.94694 13.4622C2.74493 13.0109 2.25773 12.809 1.42594 12.809C0.772382 12.809 0.653554 12.8447 0.344601 13.1534Z" fill="#334960"/>
<path d="M25.2981 13.1417C25.0129 13.4029 24.9297 13.5692 24.9297 13.9136C24.9297 14.828 25.5001 15.2317 26.6408 15.1605C27.1518 15.1248 27.4013 15.0417 27.6152 14.8398C28.1975 14.2936 28.1024 13.3317 27.437 12.9873C27.2587 12.8923 26.7834 12.8092 26.3913 12.8092C25.7734 12.8092 25.6189 12.8567 25.2981 13.1417Z" fill="#334960"/>
<path d="M4.50362 21.798C3.58864 22.6293 3.4817 23.3181 4.18278 23.9118C4.75316 24.3868 5.24035 24.3156 5.94144 23.6625C6.63064 23.0212 6.78512 22.5462 6.48805 21.9762C6.08403 21.2043 5.25224 21.133 4.50362 21.798Z" fill="#334960"/>
<path d="M21.7334 21.7033C21.1036 22.3327 21.3175 23.1758 22.2681 23.8646C22.8979 24.3277 23.4326 24.3277 23.896 23.8646C24.4902 23.2589 24.2882 22.3564 23.3732 21.6677C22.8028 21.2283 22.1968 21.252 21.7334 21.7033Z" fill="#334960"/>
<path d="M13.4757 24.9926C13.0003 25.2182 12.834 25.5982 12.834 26.4058C12.834 27.2251 13.0003 27.5933 13.4875 27.8308C13.9747 28.0564 14.0698 28.0564 14.4976 27.8308C14.961 27.5933 15.2105 27.0826 15.2105 26.4058C15.2105 25.6932 14.9372 25.1826 14.4382 24.9689C13.9391 24.767 13.9272 24.767 13.4757 24.9926Z" fill="#334960"/>
</svg>
