<svg width="25" height="25" viewBox="0 0 25 25" fill="none" xmlns="http://www.w3.org/2000/svg">
<path fill-rule="evenodd" clip-rule="evenodd" d="M12.5 25C5.59609 25 0 19.4039 0 12.5C0 5.59609 5.59609 0 12.5 0C19.4039 0 25 5.59609 25 12.5C25 19.4039 19.4039 25 12.5 25ZM6.25 14.8469H7.80781C8.66953 17.9688 10.7289 19.5312 13.9844 19.5312C15.2227 19.5312 16.2898 19.3625 17.1875 19.025V17.1711C16.243 17.557 15.375 17.7492 14.5828 17.7492C13.4742 17.7492 12.6203 17.5375 12.0227 17.1125C11.4242 16.6867 10.9164 15.932 10.5 14.8469H14.3719L14.9969 13.282H10.1656C10.1422 12.9867 10.1305 12.6523 10.1305 12.2781C10.1305 11.9531 10.1453 11.6937 10.1742 11.5008H15.718L16.3516 9.93594H10.5531C11.1102 8.14531 12.3625 7.25 14.3102 7.25C15.3015 7.24513 16.2824 7.45181 17.1875 7.85625V5.88438C16.1973 5.60328 15.1723 5.46336 14.143 5.46875C10.893 5.46875 8.80469 6.95781 7.87734 9.93594H6.88438L6.25 11.5008H7.57031C7.53974 11.8254 7.52488 12.1513 7.52578 12.4773C7.52578 12.7367 7.53437 13.0047 7.55234 13.282H6.88281L6.25 14.8469Z" fill="white"/>
</svg>
