<svg width="25" height="25" viewBox="0 0 25 25" fill="none" xmlns="http://www.w3.org/2000/svg">
<path fill-rule="evenodd" clip-rule="evenodd" d="M12.5 25C5.59609 25 0 19.4039 0 12.5C0 5.59609 5.59609 0 12.5 0C19.4039 0 25 5.59609 25 12.5C25 19.4039 19.4039 25 12.5 25ZM17.5781 14.9641C17.5781 12.993 16.3469 11.8797 13.4664 11.1859V7.71719C14.357 7.9 15.2094 8.28359 16.043 8.88594L17.1047 7.17031C16.0589 6.40433 14.8306 5.92592 13.5422 5.78281V4.6875H11.8938V5.74609C9.525 5.92891 7.91484 7.27969 7.91484 9.25078C7.91484 11.3133 9.20312 12.3172 11.9695 13.0109V16.5891C10.7375 16.4062 9.71484 15.8586 8.63437 15.0188L7.42188 16.6797C8.71975 17.6788 10.2662 18.304 11.8938 18.4875V20.3125H13.5422V18.5055C15.9484 18.3047 17.5781 16.9719 17.5781 14.9641ZM11.9688 10.8023C10.5102 10.3828 10.1508 9.88984 10.1508 9.12266C10.1508 8.32031 10.7758 7.68125 11.9695 7.58984L11.9688 10.8023ZM15.3422 15.0914C15.3422 15.968 14.6602 16.5703 13.4664 16.6617V13.3578C14.9445 13.7781 15.3422 14.2703 15.3422 15.0922V15.0914Z" fill="white"/>
</svg>
