<svg width="37" height="37" viewBox="0 0 37 37" fill="none" xmlns="http://www.w3.org/2000/svg">
<rect opacity="0.6" x="0.5" y="0.5" width="36" height="36" rx="18" stroke="#334960"/>
<g clip-path="url(#clip0_4066_13448)">
<path d="M26.25 13.9062H14.5625C14.3802 13.9062 14.2053 13.8371 14.0764 13.714C13.9474 13.591 13.875 13.424 13.875 13.25C13.875 13.076 13.9474 12.909 14.0764 12.786C14.2053 12.6629 14.3802 12.5938 14.5625 12.5938H26.25C26.4323 12.5938 26.6072 12.6629 26.7361 12.786C26.8651 12.909 26.9375 13.076 26.9375 13.25C26.9375 13.424 26.8651 13.591 26.7361 13.714C26.6072 13.8371 26.4323 13.9062 26.25 13.9062Z" fill="#334960"/>
<path d="M11.8125 13.9062H9.75C9.56766 13.9062 9.3928 13.8371 9.26386 13.714C9.13493 13.591 9.0625 13.424 9.0625 13.25C9.0625 13.076 9.13493 12.909 9.26386 12.786C9.3928 12.6629 9.56766 12.5938 9.75 12.5938H11.8125C11.9948 12.5938 12.1697 12.6629 12.2986 12.786C12.4276 12.909 12.5 13.076 12.5 13.25C12.5 13.424 12.4276 13.591 12.2986 13.714C12.1697 13.8371 11.9948 13.9062 11.8125 13.9062Z" fill="#334960"/>
<path d="M21.4375 19.1562H9.75C9.56766 19.1562 9.3928 19.0871 9.26386 18.964C9.13493 18.841 9.0625 18.674 9.0625 18.5C9.0625 18.326 9.13493 18.159 9.26386 18.036C9.3928 17.9129 9.56766 17.8438 9.75 17.8438H21.4375C21.6198 17.8438 21.7947 17.9129 21.9236 18.036C22.0526 18.159 22.125 18.326 22.125 18.5C22.125 18.674 22.0526 18.841 21.9236 18.964C21.7947 19.0871 21.6198 19.1562 21.4375 19.1562Z" fill="#334960"/>
<path d="M14.5625 24.4062H9.75C9.56766 24.4062 9.3928 24.3371 9.26386 24.214C9.13493 24.091 9.0625 23.924 9.0625 23.75C9.0625 23.576 9.13493 23.409 9.26386 23.286C9.3928 23.1629 9.56766 23.0938 9.75 23.0938H14.5625C14.7448 23.0938 14.9197 23.1629 15.0486 23.286C15.1776 23.409 15.25 23.576 15.25 23.75C15.25 23.924 15.1776 24.091 15.0486 24.214C14.9197 24.3371 14.7448 24.4062 14.5625 24.4062Z" fill="#334960"/>
<path d="M13.1875 15.2188C12.7796 15.2188 12.3808 15.1033 12.0416 14.887C11.7025 14.6706 11.4381 14.3632 11.282 14.0034C11.1259 13.6437 11.085 13.2478 11.1646 12.8659C11.2442 12.484 11.4406 12.1332 11.7291 11.8579C12.0175 11.5825 12.385 11.395 12.7851 11.3191C13.1852 11.2431 13.5999 11.2821 13.9768 11.4311C14.3537 11.5801 14.6758 11.8325 14.9024 12.1562C15.129 12.48 15.25 12.8606 15.25 13.25C15.25 13.7721 15.0327 14.2729 14.6459 14.6421C14.2591 15.0113 13.7345 15.2188 13.1875 15.2188ZM13.1875 12.5938C13.0515 12.5938 12.9186 12.6322 12.8055 12.7043C12.6925 12.7765 12.6044 12.879 12.5523 12.9989C12.5003 13.1188 12.4867 13.2507 12.5132 13.378C12.5397 13.5053 12.6052 13.6223 12.7014 13.714C12.7975 13.8058 12.92 13.8683 13.0534 13.8936C13.1867 13.919 13.325 13.906 13.4506 13.8563C13.5762 13.8066 13.6836 13.7225 13.7591 13.6146C13.8347 13.5067 13.875 13.3798 13.875 13.25C13.875 13.076 13.8026 12.909 13.6736 12.786C13.5447 12.6629 13.3698 12.5938 13.1875 12.5938Z" fill="#334960"/>
<path d="M22.8125 20.4688C22.4046 20.4688 22.0058 20.3533 21.6666 20.137C21.3275 19.9206 21.0631 19.6132 20.907 19.2534C20.7509 18.8937 20.71 18.4978 20.7896 18.1159C20.8692 17.734 21.0656 17.3832 21.3541 17.1079C21.6425 16.8325 22.01 16.645 22.4101 16.5691C22.8102 16.4931 23.2249 16.5321 23.6018 16.6811C23.9787 16.8301 24.3008 17.0825 24.5274 17.4062C24.754 17.73 24.875 18.1106 24.875 18.5C24.875 19.0221 24.6577 19.5229 24.2709 19.8921C23.8841 20.2613 23.3595 20.4688 22.8125 20.4688ZM22.8125 17.8438C22.6765 17.8438 22.5436 17.8822 22.4305 17.9543C22.3175 18.0265 22.2294 18.129 22.1773 18.2489C22.1253 18.3688 22.1117 18.5007 22.1382 18.628C22.1647 18.7553 22.2302 18.8723 22.3264 18.964C22.4225 19.0558 22.545 19.1183 22.6784 19.1436C22.8117 19.169 22.95 19.156 23.0756 19.1063C23.2012 19.0566 23.3086 18.9725 23.3841 18.8646C23.4597 18.7567 23.5 18.6298 23.5 18.5C23.5 18.326 23.4276 18.159 23.2986 18.036C23.1697 17.9129 22.9948 17.8438 22.8125 17.8438Z" fill="#334960"/>
<path d="M15.9375 25.7188C15.5296 25.7188 15.1308 25.6033 14.7916 25.387C14.4525 25.1706 14.1881 24.8632 14.032 24.5034C13.8759 24.1437 13.835 23.7478 13.9146 23.3659C13.9942 22.984 14.1906 22.6332 14.4791 22.3579C14.7675 22.0825 15.135 21.895 15.5351 21.8191C15.9352 21.7431 16.3499 21.7821 16.7268 21.9311C17.1037 22.0801 17.4258 22.3325 17.6524 22.6562C17.879 22.98 18 23.3606 18 23.75C18 24.2721 17.7827 24.7729 17.3959 25.1421C17.0091 25.5113 16.4845 25.7188 15.9375 25.7188ZM15.9375 23.0938C15.8015 23.0938 15.6686 23.1322 15.5555 23.2043C15.4425 23.2765 15.3544 23.379 15.3023 23.4989C15.2503 23.6188 15.2367 23.7507 15.2632 23.878C15.2897 24.0053 15.3552 24.1223 15.4514 24.214C15.5475 24.3058 15.67 24.3683 15.8034 24.3936C15.9367 24.419 16.075 24.406 16.2006 24.3563C16.3262 24.3066 16.4336 24.2225 16.5091 24.1146C16.5847 24.0067 16.625 23.8798 16.625 23.75C16.625 23.576 16.5526 23.409 16.4236 23.286C16.2947 23.1629 16.1198 23.0938 15.9375 23.0938Z" fill="#334960"/>
<path d="M26.25 19.1562H24.1875C24.0052 19.1562 23.8303 19.0871 23.7014 18.964C23.5724 18.841 23.5 18.674 23.5 18.5C23.5 18.326 23.5724 18.159 23.7014 18.036C23.8303 17.9129 24.0052 17.8438 24.1875 17.8438H26.25C26.4323 17.8438 26.6072 17.9129 26.7361 18.036C26.8651 18.159 26.9375 18.326 26.9375 18.5C26.9375 18.674 26.8651 18.841 26.7361 18.964C26.6072 19.0871 26.4323 19.1562 26.25 19.1562Z" fill="#334960"/>
<path d="M26.25 24.4062H17.3125C17.1302 24.4062 16.9553 24.3371 16.8264 24.214C16.6974 24.091 16.625 23.924 16.625 23.75C16.625 23.576 16.6974 23.409 16.8264 23.286C16.9553 23.1629 17.1302 23.0938 17.3125 23.0938H26.25C26.4323 23.0938 26.6072 23.1629 26.7361 23.286C26.8651 23.409 26.9375 23.576 26.9375 23.75C26.9375 23.924 26.8651 24.091 26.7361 24.214C26.6072 24.3371 26.4323 24.4062 26.25 24.4062Z" fill="#334960"/>
</g>
<defs>
<clipPath id="clip0_4066_13448">
<rect width="22" height="21" fill="white" transform="translate(7 8)"/>
</clipPath>
</defs>
</svg>
