<svg width="66" height="66" viewBox="0 0 66 66" fill="none" xmlns="http://www.w3.org/2000/svg">
<path d="M9.39881 54.258L12.0945 40.8188H16.467L13.7919 54.258H9.39881ZM22.6236 49.8546H25.4059L24.6861 44.9355L22.6236 49.8546ZM16.467 54.258L23.1062 40.8188H27.4251L30.1434 54.258H26.0927L25.8452 52.6575H21.5263L20.8395 54.258H16.467ZM34.1818 54.258L35.6854 44.1497H31.8512L32.5071 40.7652H44.2798L43.6239 44.1497H39.9712L38.4986 54.258H34.1818ZM48.8978 49.8546H51.6904L50.9706 44.9355L48.8978 49.8546ZM42.7762 54.258L49.3927 40.8188H53.7116L56.43 54.258H52.338L52.1441 52.6575H47.8252L47.1384 54.258H42.7762ZM66 25.6409H45.3853C44.6325 29.4111 42.0131 32.5585 36.7909 34.7385C37.3931 36.5329 39.4123 38.187 41.5058 38.187H52.6886C54.3964 38.187 55.7494 36.7577 56.298 35.5986H44.9336C44.2344 35.481 44.2035 34.9118 44.9006 34.8582H56.0732C57.5128 34.8582 58.8225 33.6227 59.5856 32.2904H46.5774C45.9216 32.1831 45.9216 31.6345 46.5774 31.5272H59.6929C61.0149 31.5272 62.2174 29.9907 62.7124 28.9594H48.3285C47.6087 28.8625 47.6087 28.1963 48.3285 28.1757H62.9702C64.119 28.1757 65.2266 26.9299 66 25.6409ZM0 25.6409H20.6147C21.3551 29.4111 23.9869 32.5585 29.1864 34.7385C28.5966 36.5329 26.5753 38.187 24.4716 38.187H13.3114C11.6036 38.187 10.2506 36.7577 9.702 35.5986H21.0664C21.7532 35.481 21.7965 34.9118 21.0994 34.8582H9.9165C8.47688 34.8582 7.16719 33.6227 6.42469 32.2904H19.4453C20.1011 32.1831 20.1011 31.6345 19.4453 31.5272H6.32981C5.00775 31.5272 3.80531 29.9907 3.3 28.9594H17.6942C18.4037 28.8625 18.4037 28.1963 17.6942 28.1757H3.04219C1.89338 28.1757 0.7755 26.9299 0.0020625 25.6409H0ZM26.3175 14.3301C27.0806 14.986 27.9283 15.5552 28.842 15.9203C29.6154 14.4064 30.69 13.0947 31.9461 11.9355C29.8836 12.1934 27.9283 13.0204 26.3175 14.3301ZM22.6669 21.8273H27.2539C27.3508 20.0123 27.7695 18.2385 28.5099 16.5741C27.5117 16.1327 26.5753 15.5532 25.7483 14.8437C23.8899 16.702 22.7824 19.1935 22.6648 21.8252L22.6669 21.8273ZM32.6452 17.5208V21.8294H28.0479C28.0912 20.0989 28.4769 18.4035 29.1864 16.834C30.2816 17.232 31.4737 17.4899 32.6452 17.5208ZM39.6825 14.3301C38.9421 14.986 38.082 15.5325 37.158 15.9203C36.3639 14.427 35.31 13.0844 34.0436 11.9562C36.1164 12.1934 38.0717 13.0204 39.6825 14.3301ZM43.3228 21.8273H38.7461C38.6822 20.0123 38.2635 18.2282 37.521 16.5741C38.4986 16.1121 39.4226 15.5429 40.2291 14.8437C42.1204 16.6814 43.2259 19.1832 43.3228 21.8252V21.8273ZM33.3877 17.5208V21.8294H37.9541C37.9541 20.0886 37.5251 18.4345 36.8156 16.834C35.7101 17.2424 34.5572 17.4795 33.3877 17.5208ZM26.3175 30.0897C27.0806 29.4874 27.951 28.8336 28.842 28.5222C29.6588 30.0587 30.6797 31.3148 31.9461 32.4636C29.8836 32.2058 27.9283 31.389 26.3175 30.0897ZM22.6669 22.5698H27.2539C27.3611 24.4714 27.7592 26.1462 28.5099 27.8663C27.5117 28.3077 26.5877 28.8872 25.7483 29.5844C23.8899 27.7054 22.7844 25.2119 22.6669 22.5698ZM32.6452 26.8866V22.5677H28.0479C28.0809 24.3085 28.4769 26.0265 29.1864 27.5631C30.2816 27.165 31.4737 26.9175 32.6452 26.8866ZM39.6825 30.0897C38.9297 29.4338 38.082 28.9079 37.158 28.5222C36.3639 30.0051 35.31 31.3478 34.0436 32.4636C36.1061 32.2058 38.0614 31.3787 39.6825 30.0897ZM43.3228 22.5698H38.7461C38.6822 24.3951 38.2738 26.1998 37.521 27.8663C38.4986 28.318 39.3793 28.8645 40.2291 29.5844C42.108 27.7157 43.2156 25.2119 43.3228 22.5698ZM33.3877 26.8866V22.5677H37.9541C37.9541 24.3085 37.5251 25.9935 36.8156 27.5631C35.7204 27.1547 34.5572 26.9299 33.3877 26.8866ZM32.6452 12.3852C31.3665 13.4267 30.3146 14.7158 29.5515 16.1781C30.5394 16.5225 31.5934 16.7907 32.6452 16.7907V12.3852ZM33.3877 12.3852C34.6129 13.3834 35.7184 14.7055 36.4485 16.1781C35.4709 16.5659 34.4396 16.768 33.3877 16.7907V12.3852ZM32.6452 32.0325C31.3562 30.991 30.3043 29.6916 29.5515 28.219C30.5394 27.8642 31.5934 27.66 32.6452 27.66V32.0325ZM33.3877 32.0655C34.6129 31.0446 35.7184 29.671 36.4485 28.2087C35.4606 27.8766 34.4293 27.693 33.3877 27.6724V32.0655Z" fill="white"/>
</svg>
