<svg width="54" height="55" viewBox="0 0 54 55" fill="none" xmlns="http://www.w3.org/2000/svg">
<g clip-path="url(#clip0_4005_2235)">
<path d="M53.9998 22.187H39.625V26.796H43.081V33.1045H50.5438V26.796H53.9998V22.187Z" fill="white"/>
<path d="M32.9832 16.5167C37.2222 16.5167 42.7896 18.1942 46.6992 20.8067V11.7757C40.5486 8.11265 32.8266 5.86865 25.9254 5.86865C8.0298 5.86865 0 15.5487 0 27.4892C0 39.4352 7.965 49.1152 25.9308 49.1152C32.8266 49.1152 40.5486 46.8712 46.7046 43.2081V34.6447C43.092 37.0647 37.9188 38.6047 32.9886 38.6047C27.0702 38.6047 22.275 33.6602 22.275 27.5607C22.275 21.4612 27.0702 16.5167 32.9832 16.5167ZM12.8196 30.5802C12.2418 30.5802 11.6856 30.5087 11.1456 30.3877V25.9272C11.637 26.2187 12.2094 26.3947 12.8196 26.3947C14.6502 26.3947 16.1298 24.8822 16.1298 23.0232C16.1298 21.1642 14.6448 19.6517 12.8196 19.6517C10.9944 19.6517 9.4986 21.1642 9.4986 23.0232C9.4986 23.0232 9.4986 36.0912 9.4986 39.6332C6.291 39.6332 5.3892 36.4817 5.3892 36.4817V23.0122C5.3892 18.8322 8.7156 15.4497 12.8142 15.4497C16.9182 15.4497 20.2392 18.8377 20.2392 23.0122C20.25 27.1922 16.9236 30.5802 12.8196 30.5802Z" fill="white"/>
</g>
<defs>
<clipPath id="clip0_4005_2235">
<rect width="54" height="55" fill="white"/>
</clipPath>
</defs>
</svg>
