<svg width="900" height="1091" viewBox="0 0 900 1091" fill="none" xmlns="http://www.w3.org/2000/svg">
<path d="M307.089 749.779C348.3 769.719 396.158 781.684 445.346 781.684C498.521 781.684 549.038 768.39 592.908 744.461C550.368 721.861 503.839 711.226 457.31 712.556C404.135 712.556 353.618 725.85 307.089 749.779Z" fill="white"/>
<path d="M232.646 699.255C249.928 715.207 268.539 728.501 288.48 739.136C338.997 708.56 397.49 692.608 457.313 693.937C511.818 692.608 564.994 707.231 611.522 733.819C631.463 721.854 650.075 707.231 667.357 689.949C604.875 643.42 529.1 618.162 450.666 619.491C370.903 622.15 293.798 650.067 232.646 699.255Z" fill="white"/>
<path d="M445.348 510.489C393.502 511.818 341.656 523.783 293.797 545.053C248.598 564.994 208.716 594.241 174.152 628.805C187.446 650.075 202.069 670.016 219.352 687.298C284.492 634.122 365.585 603.546 449.336 602.217C533.088 600.888 612.851 627.475 679.321 677.992C696.603 659.381 709.897 639.44 723.191 616.84C687.297 582.276 644.757 555.688 598.228 537.077C550.37 518.465 498.524 509.16 445.348 510.489Z" fill="white"/>
<path d="M450.662 237.958C393.498 237.958 336.335 222.005 285.818 194.088C265.877 206.052 247.265 219.346 229.983 235.299C292.465 287.145 369.569 316.392 450.662 317.721C530.426 319.051 607.53 292.463 671.341 244.605C654.059 227.323 635.448 211.37 614.177 198.076C564.99 223.334 510.485 236.628 454.65 236.628C453.321 237.958 451.992 237.958 450.662 237.958Z" fill="white"/>
<path d="M450.665 219.359C499.852 219.359 549.04 208.724 594.239 187.454C550.369 163.524 499.852 150.231 445.347 150.231C394.83 150.231 346.972 162.195 304.432 183.465C349.631 207.394 400.148 219.359 450.665 219.359Z" fill="white"/>
<path d="M454.657 441.35C451.998 441.35 448.01 441.35 445.351 441.35C390.846 440.021 337.67 428.056 287.153 405.456C241.954 385.516 200.743 356.269 164.849 321.705C142.25 365.575 128.956 414.762 128.956 466.608C128.956 518.455 142.25 568.971 164.849 611.512C200.743 576.948 240.625 547.701 287.153 527.76C337.67 505.161 390.846 493.196 445.351 491.867C499.856 490.537 554.361 499.843 604.878 521.113C651.407 539.725 693.947 566.313 731.17 599.547C749.782 558.336 760.417 513.137 760.417 466.608C760.417 418.75 749.782 373.551 731.17 333.669C693.947 368.233 651.407 394.821 604.878 412.103C557.02 430.715 506.503 441.35 454.657 441.35Z" fill="white"/>
<path d="M449.336 336.325C364.255 334.995 281.833 304.42 216.693 248.585C200.74 265.867 186.117 283.149 174.152 303.09C208.716 338.984 248.598 366.901 293.797 386.842C341.656 408.112 392.172 420.077 445.348 421.406C498.524 422.735 549.041 413.43 598.228 393.489C644.757 374.877 685.968 348.289 723.191 313.725C712.556 292.455 697.932 273.844 683.309 256.561C618.169 307.078 538.405 334.996 455.983 334.996C453.324 336.325 451.995 336.325 449.336 336.325Z" fill="white"/>
<path d="M39.8817 353.622C41.2111 350.963 41.2111 348.305 41.2111 345.646C41.2111 342.987 39.8817 340.328 39.8817 337.669C38.5523 335.011 37.2229 333.681 34.5642 331.022C33.2348 329.693 30.576 328.364 27.9172 327.034C23.929 325.705 19.9409 325.705 15.9527 327.034C11.9645 328.364 7.97635 329.693 5.31757 332.352C2.65878 335.011 1.32939 338.999 0 342.987C0 346.975 2.97142e-07 350.963 1.32939 354.951C2.65878 358.94 5.31756 361.598 9.30574 364.257C13.2939 366.916 17.2821 366.916 19.9409 366.916C22.5996 366.916 27.9172 365.587 30.576 362.928C35.8936 360.269 38.5523 357.61 39.8817 353.622Z" fill="white"/>
<path d="M63.8132 218.014L66.472 214.026C69.1308 210.037 73.1189 204.72 81.0953 211.367C89.0716 218.014 86.4129 223.331 82.4247 228.649L79.7659 231.308L63.8132 218.014ZM90.401 239.284L94.3892 235.296C97.048 232.637 98.3774 229.978 99.7068 227.319C101.036 224.661 101.036 220.672 101.036 218.014C101.036 214.025 99.7068 211.367 98.3774 208.708C97.048 206.049 94.3892 203.39 91.7304 202.061C89.0716 199.402 86.4129 198.073 82.4247 196.743C78.4365 195.414 75.7777 196.743 71.7896 198.073C66.472 200.732 62.4838 204.72 58.4956 210.037L46.5311 224.661C46.5311 224.661 46.5311 224.661 46.5311 225.99C46.5311 225.99 46.5311 225.99 46.5311 227.319C46.5311 227.319 46.5311 227.319 46.5311 228.649C46.5311 228.649 46.5311 228.649 47.8605 228.649L105.024 272.519C105.024 272.519 105.024 272.519 106.354 272.519C106.354 272.519 106.354 272.519 107.683 272.519C107.683 272.519 107.683 272.519 109.013 272.519C109.013 272.519 109.013 272.519 109.013 271.189L113.001 259.225C113.001 259.225 113.001 259.225 113.001 257.895C113.001 257.895 113.001 257.895 113.001 256.566C113.001 256.566 113.001 256.566 113.001 255.237C113.001 255.237 113.001 255.237 111.671 255.237L90.401 239.284Z" fill="white"/>
<path d="M172.82 144.891C167.502 139.573 146.232 114.315 126.291 132.926C105.021 150.208 126.291 175.467 131.609 180.784C136.926 187.431 158.197 211.36 178.138 192.749C198.078 175.467 178.138 151.538 172.82 144.891ZM170.161 183.443C162.185 190.09 148.891 176.796 143.573 170.149C136.926 162.173 126.291 147.549 134.268 140.902C142.244 134.255 154.208 146.22 162.185 154.196C166.173 162.173 178.138 176.796 170.161 183.443Z" fill="white"/>
<path d="M253.914 123.642C253.914 123.642 252.585 122.313 252.585 123.642C251.255 124.972 251.255 124.972 251.255 126.301C249.926 128.96 247.267 131.619 244.608 132.948C243.279 134.277 240.62 134.277 239.291 134.277C237.961 134.277 235.302 134.277 233.973 132.948C227.326 130.289 220.679 119.654 219.35 115.666C212.703 102.372 210.044 97.0544 211.373 91.7368C211.373 90.4075 212.703 89.0781 214.032 87.7487C214.032 86.4193 214.032 86.4193 216.691 85.0899C219.35 83.7605 223.338 83.7605 227.326 83.7605C228.655 83.7605 228.655 83.7605 229.985 83.7605V82.4311V74.4548V73.1254C229.985 73.1254 228.655 71.796 227.326 71.796C222.009 70.4666 215.362 71.796 210.044 74.4548C199.409 79.7723 188.774 94.3956 206.056 123.642C214.032 136.936 228.655 155.548 249.926 143.583C255.243 140.924 259.231 135.607 261.89 130.289C261.89 130.289 261.89 130.289 261.89 128.96C261.89 127.63 261.89 127.63 261.89 127.63C261.89 127.63 261.89 127.63 261.89 126.301C261.89 126.301 261.89 126.301 260.561 126.301L253.914 123.642Z" fill="white"/>
<path d="M325.699 95.7137C325.699 95.7137 324.369 94.3843 324.369 95.7137C323.04 95.7137 323.04 97.0431 321.711 98.3725C320.381 99.7018 317.722 102.361 315.064 103.69C313.734 103.69 311.076 105.019 309.746 103.69C308.417 103.69 305.758 102.361 304.429 102.361C299.111 98.3725 295.123 86.4079 292.464 82.4198C287.146 69.1258 287.146 62.4789 288.476 57.1613C289.805 55.8319 289.805 54.5025 291.135 53.1732C292.464 51.8438 293.793 51.8438 295.123 50.5144C299.111 49.185 301.77 50.5144 305.758 51.8438C307.087 51.8438 307.087 51.8438 308.417 51.8438C309.746 51.8438 309.746 50.5144 309.746 50.5144L311.076 43.8674V42.538C311.076 42.538 309.746 41.2086 308.417 39.8792C303.099 37.2205 296.452 37.2205 291.135 39.8792C279.17 43.8674 265.876 55.8319 277.841 87.7373C283.158 102.361 293.793 123.631 317.722 115.655C323.04 114.325 328.358 110.337 332.346 105.019C332.346 105.019 333.675 103.69 332.346 102.361C332.346 102.361 332.346 101.031 331.016 101.031L325.699 95.7137Z" fill="white"/>
<path d="M394.83 21.273C393.501 21.273 392.172 22.6024 392.172 23.9318L381.536 55.8372C380.207 59.8253 377.548 69.1311 376.219 73.1192C374.89 61.1547 374.89 62.4841 374.89 57.1666L370.901 25.2612C370.901 23.9318 370.901 22.6024 368.243 23.9318L357.607 25.2612C357.607 25.2612 357.607 25.2612 356.278 25.2612C356.278 25.2612 356.278 25.2612 354.949 25.2612C354.949 25.2612 354.949 25.2612 354.949 26.5906C354.949 26.5906 354.949 26.5906 354.949 27.9199L362.925 98.3777C362.925 99.7071 362.925 101.036 365.584 99.7071L376.219 98.3777C377.548 98.3777 377.548 97.0483 378.878 95.7189L390.842 61.1547C393.501 57.1665 394.83 51.849 396.16 46.5314C396.16 50.5196 397.489 55.8372 397.489 58.4959L401.477 93.0601C401.477 94.3895 401.477 95.7189 404.136 94.3895L414.771 93.0601C416.101 93.0601 417.43 91.7307 416.101 90.4013L408.124 21.273C408.124 19.9436 408.124 18.6142 405.466 19.9436L394.83 21.273Z" fill="white"/>
<path d="M503.837 21.2703C502.507 21.2703 501.178 22.5996 501.178 23.929L483.896 51.8463C481.237 55.8344 477.249 63.8108 474.59 67.7989C475.919 55.8344 475.919 57.1638 477.249 51.8463L479.908 19.9409C479.908 18.6115 479.908 17.2821 478.578 17.2821L467.943 15.9527C466.614 15.9527 465.284 15.9527 465.284 17.2821L458.637 89.0692C458.637 90.3986 458.637 91.728 459.967 91.728L470.602 93.0574C471.931 93.0574 473.261 93.0574 473.261 91.728L491.872 61.152C494.531 57.1638 497.19 51.8463 499.848 46.5287C499.848 50.5169 498.519 55.8344 498.519 58.4932L494.531 93.0574C494.531 94.3868 494.531 95.7162 495.86 95.7162L506.495 97.0456C506.495 97.0456 506.495 97.0456 507.825 97.0456C507.825 97.0456 507.825 97.0456 509.154 97.0456C509.154 97.0456 509.154 97.0455 509.154 95.7162C509.154 95.7162 509.154 95.7162 509.154 94.3868L515.801 22.5996C515.801 22.5996 515.801 22.5996 515.801 21.2703C515.801 21.2703 515.801 21.2703 515.801 19.9409C515.801 19.9409 515.801 19.9409 514.472 19.9409C514.472 19.9409 514.472 19.9409 513.142 19.9409L503.837 21.2703ZM501.178 2.65878H499.848L498.519 3.98817C498.519 5.31756 497.19 6.64696 495.86 6.64696C494.531 7.97635 493.201 7.97635 491.872 7.97635C490.543 7.97635 489.213 6.64696 487.884 6.64696C486.554 5.31756 486.554 3.98817 485.225 2.65878C485.225 1.32939 485.225 0 483.896 0H475.919C475.919 0 474.59 2.97142e-07 474.59 1.32939C474.59 3.98817 474.59 5.31756 475.919 7.97635C477.249 10.6351 479.908 11.9645 482.566 13.2939C485.225 14.6233 487.884 15.9527 490.543 15.9527C493.201 15.9527 495.86 15.9527 498.519 15.9527C501.178 14.6233 503.837 13.2939 505.166 11.9645C506.495 10.6351 507.825 7.97635 507.825 6.64696C507.825 5.31756 507.825 5.31756 506.495 5.31756L501.178 2.65878Z" fill="white"/>
<path d="M588.924 106.349C588.924 106.349 588.924 105.02 587.595 105.02C586.266 105.02 584.936 105.02 584.936 105.02C582.277 106.349 578.289 106.349 575.63 105.02C574.301 105.02 571.642 103.69 570.313 102.361C568.983 102.361 567.654 99.7019 566.325 98.3726C563.666 91.7256 567.654 79.7611 568.983 75.7729C572.972 61.1496 576.96 55.832 580.948 53.1733C582.277 51.8439 583.607 51.8439 586.266 51.8439C587.595 51.8439 590.254 51.8439 591.583 51.8439C594.242 53.1733 596.901 55.832 599.559 58.4908L600.889 59.8202C602.218 59.8202 602.218 59.8202 602.218 58.4908L607.536 55.832L608.865 54.5026C608.865 54.5026 608.865 53.1733 607.536 50.5145C604.877 46.5263 599.559 42.5381 594.242 41.2087C582.277 37.2206 564.995 38.55 554.36 71.7847C549.043 86.408 545.054 110.337 570.313 116.984C575.63 118.313 582.277 118.313 588.924 116.984L590.254 115.655V114.325L588.924 106.349Z" fill="white"/>
<path d="M628.801 139.573C630.13 139.573 631.46 140.902 631.46 138.244L647.412 110.326L651.4 112.985C652.73 112.985 652.73 114.315 654.059 114.315C655.389 115.644 655.389 115.644 655.389 116.973C655.389 118.303 655.389 119.632 655.389 119.632C655.389 120.961 655.389 122.291 654.059 122.291L650.071 135.585C648.742 139.573 647.412 143.561 648.742 147.549C650.071 151.537 654.059 154.196 656.718 156.855C658.047 158.184 659.377 156.855 659.377 156.855L666.024 150.208C666.024 150.208 666.024 150.208 666.024 148.879C666.024 148.879 666.024 148.879 666.024 147.549L663.365 146.22C660.706 143.561 660.706 142.232 662.036 136.914L664.694 127.608C666.024 124.95 666.024 122.291 664.694 119.632C664.694 116.973 663.365 114.315 660.706 112.985C663.365 112.985 666.024 112.985 667.353 111.656C670.012 110.326 671.341 108.997 672.671 107.668L677.988 101.021C681.976 97.0324 683.306 97.0324 685.965 97.0324L688.623 98.3618C688.623 98.3618 688.623 98.3618 689.953 98.3618C689.953 98.3618 689.953 98.3618 689.953 97.0324L691.282 89.0561V87.7267C691.282 87.7267 691.282 86.3973 689.953 86.3973C687.294 85.0679 683.306 83.7385 680.647 83.7385C677.988 83.7385 675.33 85.0679 674 86.3973C671.341 87.7267 670.012 89.0561 668.683 91.7149V99.6912C664.694 105.009 660.706 105.009 656.718 102.35L654.059 101.021L667.353 75.7622C668.683 74.4328 667.353 73.1034 666.024 73.1034L656.718 67.7858C655.389 67.7858 655.389 66.4564 654.059 69.1152L619.495 131.597C618.166 132.926 619.495 134.255 620.824 134.255L628.801 139.573Z" fill="white"/>
<path d="M769.714 146.233C768.385 144.903 767.055 144.903 765.726 146.233L735.15 159.526C731.162 160.856 721.856 164.844 717.868 167.503C725.844 158.197 724.515 159.526 728.503 155.538L749.773 131.609C749.773 131.609 749.773 131.609 749.773 130.28C749.773 130.28 749.773 130.28 749.773 128.95C749.773 128.95 749.773 128.95 749.773 127.621C749.773 127.621 749.773 127.621 749.773 126.292L741.797 119.645C741.797 119.645 741.797 119.645 740.468 119.645C740.468 119.645 740.468 119.645 739.138 119.645C739.138 119.645 739.138 119.645 737.809 119.645C737.809 119.645 737.809 119.645 736.479 119.645L688.621 172.82C688.621 172.82 688.621 172.82 688.621 174.15C688.621 174.15 688.621 174.15 688.621 175.479C688.621 175.479 688.621 175.479 688.621 176.809C688.621 176.809 688.621 176.809 688.621 178.138L696.598 184.785C697.927 186.114 697.927 186.114 699.257 184.785L732.491 170.162C737.809 167.503 741.797 166.173 747.115 163.515C744.456 166.173 740.468 170.162 739.138 172.82L715.209 199.408C715.209 199.408 715.209 199.408 715.209 200.738C715.209 200.738 715.209 200.738 715.209 202.067C715.209 202.067 715.209 202.067 715.209 203.396C715.209 203.396 715.209 203.396 715.209 204.726L723.186 211.373C723.186 211.373 723.186 211.373 724.515 211.373C724.515 211.373 724.515 211.373 725.844 211.373C727.174 211.373 725.844 211.373 727.174 211.373C727.174 211.373 727.174 211.373 728.503 211.373L776.361 158.197C776.361 158.197 776.361 158.197 776.361 156.868C776.361 155.538 776.361 156.868 776.361 155.538C776.361 155.538 776.361 155.538 776.361 154.209C776.361 154.209 776.361 154.209 776.361 152.879L769.714 146.233Z" fill="white"/>
<path d="M841.501 227.329C840.172 226 838.842 226 837.513 226L804.278 232.647C800.29 233.976 790.984 235.306 785.667 236.635C796.302 229.988 794.973 231.317 798.961 227.329L825.549 208.718C825.549 208.718 825.548 208.718 826.878 208.718C826.878 208.718 826.878 208.718 826.878 207.388C826.878 207.388 826.878 207.388 826.878 206.059C826.878 206.059 826.878 206.059 826.878 204.73L820.231 196.753C820.231 196.753 820.231 196.753 820.231 195.424C820.231 195.424 820.231 195.424 818.902 195.424C818.902 195.424 818.902 195.424 817.572 195.424C817.572 195.424 817.572 195.424 816.243 195.424L757.75 237.964C757.75 237.964 757.75 237.964 756.42 237.964C756.42 237.964 756.42 237.964 756.42 239.294C756.42 239.294 756.42 239.294 756.42 240.623C756.42 240.623 756.42 240.623 756.42 241.952L763.067 249.929C764.397 251.258 764.397 251.258 765.726 251.258L801.619 244.611C806.937 243.282 812.255 241.952 817.572 240.623C814.913 243.282 809.596 245.941 806.937 247.27L777.69 268.54C777.69 268.54 777.69 268.54 776.361 268.54C776.361 268.54 776.361 268.54 776.361 269.87C776.361 269.87 776.361 269.87 776.361 271.199C776.361 271.199 776.361 271.199 776.361 272.528L783.008 280.505C783.008 280.505 783.008 280.505 783.008 281.834C783.008 281.834 783.008 281.834 784.337 281.834C784.337 281.834 784.337 281.834 785.667 281.834C785.667 281.834 785.667 281.834 786.996 281.834L845.489 239.294C845.489 239.294 845.489 239.294 846.819 239.294C846.819 239.294 846.819 239.294 846.819 237.964C846.819 237.964 846.819 237.964 846.819 236.635C846.819 236.635 846.819 236.635 846.819 235.306L841.501 227.329ZM853.466 211.376C852.136 210.047 850.807 210.047 850.807 211.376C849.478 211.376 848.148 211.376 846.819 211.376C845.489 211.376 844.16 210.047 844.16 208.718C842.831 207.388 842.831 206.059 842.831 204.73C842.831 203.4 842.831 202.071 844.16 200.741C844.16 199.412 845.489 199.412 845.489 198.083C845.489 198.083 845.489 198.083 844.16 196.753L838.842 192.765C838.842 192.765 838.842 192.765 837.513 192.765H836.184C834.854 194.094 833.525 196.753 832.195 198.083C830.866 200.741 830.866 203.4 832.195 206.059C832.195 208.718 833.525 211.376 836.184 212.706C837.513 215.365 840.172 216.694 841.501 218.023C844.16 219.353 846.819 220.682 849.477 220.682C852.136 220.682 853.466 220.682 856.124 219.353C857.454 219.353 857.454 218.023 856.124 218.023L853.466 211.376Z" fill="white"/>
<path d="M848.153 369.567C849.483 374.884 853.471 378.873 858.789 380.202C864.106 382.861 869.424 382.861 873.412 381.531C878.729 380.202 882.718 376.214 885.376 372.226C888.035 368.237 888.035 362.92 886.706 357.602C885.376 352.285 881.388 348.297 876.071 345.638C870.753 342.979 865.435 342.979 860.118 344.308C857.459 345.638 854.8 346.967 853.471 348.297C850.812 349.626 849.483 352.285 848.153 354.943C846.824 357.602 846.824 360.261 845.495 362.92C846.824 364.249 846.824 366.908 848.153 369.567Z" fill="white"/>
<path d="M15.9526 487.887C15.9526 487.887 17.282 487.887 17.282 486.557C17.282 485.228 15.9526 485.228 15.9526 483.898C14.6232 481.24 13.2938 478.581 13.2938 474.593C13.2938 473.263 13.2938 470.604 14.6232 469.275C15.9526 467.946 17.282 466.616 18.6114 465.287C23.9289 461.299 37.2228 461.299 41.211 461.299C55.8343 461.299 62.4813 462.628 66.4694 466.616C67.7988 467.946 69.1282 469.275 69.1282 470.605C69.1282 471.934 70.4576 473.263 70.4576 475.922C70.4576 479.91 69.1282 482.569 66.4694 485.228C66.4694 485.228 65.14 486.557 65.14 487.887C65.14 489.216 65.14 489.216 66.4694 489.216L73.1164 493.204H74.4458C75.7752 493.204 75.7752 493.204 77.1046 490.545C81.0927 485.228 82.4221 479.91 82.4221 474.593C82.4221 462.628 75.7752 446.675 41.211 445.346C25.2583 445.346 2.65866 448.005 1.32927 473.263C1.32927 479.91 2.65866 485.228 6.64683 490.545L7.97622 491.875H9.30562L15.9526 487.887Z" fill="white"/>
<path d="M51.8469 571.648C59.8233 570.319 91.7287 563.672 86.4111 537.084C81.0935 510.497 50.5175 515.814 42.5412 517.143C34.5648 518.473 2.65946 525.12 7.97703 551.708C13.2946 578.295 43.8706 572.978 51.8469 571.648ZM19.9415 549.049C18.6122 538.414 37.2236 534.426 45.2 533.096C55.8351 531.767 73.1172 529.108 74.4466 539.743C75.776 550.378 59.8233 554.366 49.1882 555.696C39.8824 558.355 21.2709 561.013 19.9415 549.049Z" fill="white"/>
<path d="M73.116 615.517L99.7038 603.552C102.363 602.223 101.033 602.223 101.033 600.894L95.7156 591.588C95.7156 590.259 94.3862 588.929 93.0568 590.259L26.5873 618.176C23.9285 619.505 25.2579 619.505 25.2579 620.835L29.2461 631.47C29.2461 632.799 30.5754 634.128 31.9048 632.799L59.8221 620.835L63.8102 628.811C57.1633 631.47 51.8457 635.458 46.5281 640.775C43.8694 644.764 41.2106 648.752 39.8812 652.74C38.5518 658.057 39.8812 662.046 42.54 666.034C53.1751 691.292 82.4217 679.328 90.3981 675.34C98.3744 671.351 127.621 659.387 115.656 634.128C114.327 630.14 110.339 626.152 106.351 623.493C102.363 620.835 98.3744 619.505 93.0568 619.505C86.4099 619.505 79.7629 620.835 74.4454 623.493L73.116 615.517ZM54.5045 662.046C50.5163 651.411 67.7984 643.434 75.7747 639.446C85.0805 635.458 102.363 628.811 106.351 639.446C110.339 650.081 93.0568 658.057 85.0805 662.046C75.7747 666.034 58.4927 672.681 54.5045 662.046Z" fill="white"/>
<path d="M111.668 711.224C110.339 711.224 110.339 711.224 111.668 711.224C110.339 712.553 110.339 712.553 110.339 712.553C110.339 712.553 110.339 712.553 110.339 713.882C110.339 713.882 110.339 713.882 110.339 715.212L111.668 717.871C114.327 719.2 115.656 720.529 115.656 724.517C115.656 725.847 115.656 728.506 114.327 729.835C112.997 731.164 111.668 732.494 110.339 733.823C107.68 735.153 105.021 736.482 102.362 736.482C101.033 736.482 98.3741 735.153 97.0447 735.153C95.7153 733.823 94.3859 732.494 93.0565 731.164C90.3977 728.506 89.0683 724.517 89.0683 720.529C89.0683 719.2 89.0683 717.871 89.0683 717.871C89.0683 716.541 87.7389 717.871 87.7389 717.871L81.092 719.2H79.7626C79.7626 719.2 79.7626 719.2 79.7626 720.529V721.859C79.7626 728.506 82.4214 735.153 86.4095 740.47C98.3741 756.423 111.668 755.093 120.974 748.447C124.962 745.788 127.621 743.129 128.95 739.141C130.279 735.153 130.279 731.164 127.621 727.176C130.279 729.835 134.268 729.835 138.256 729.835C142.244 729.835 144.903 728.506 148.891 725.847C159.526 717.87 160.855 707.235 152.879 696.6C148.891 691.283 143.573 687.295 138.256 684.636C136.926 684.636 136.926 684.636 135.597 684.636C134.268 684.636 134.268 684.636 132.938 684.636L131.609 685.965L128.95 692.612C128.95 693.941 128.95 693.941 128.95 693.941C128.95 693.941 130.279 695.271 131.609 695.271C135.597 696.6 138.256 697.93 140.915 700.588C142.244 701.918 142.244 703.247 142.244 704.577C142.244 705.906 142.244 707.235 142.244 708.565C142.244 709.894 140.915 711.224 140.915 712.553C140.915 713.882 138.256 711.224 136.926 711.224C135.597 712.553 128.95 717.871 120.974 708.565L119.644 707.235C119.644 707.235 119.644 707.235 119.644 705.906C119.644 705.906 119.644 705.906 118.315 705.906C118.315 705.906 118.315 705.906 116.986 705.906C116.986 705.906 116.986 705.906 115.656 705.906L111.668 711.224Z" fill="white"/>
<path d="M222.006 784.355L232.641 792.331H233.971H235.3L243.276 787.014C243.276 787.014 245.935 785.684 243.276 784.355L206.053 755.108C206.053 755.108 206.053 755.108 204.724 755.108L196.748 764.414C196.748 764.414 196.748 764.414 196.748 765.743L208.712 775.049L171.489 822.907C171.489 822.907 171.489 822.907 171.489 824.237C171.489 824.237 171.489 824.237 171.489 825.566C171.489 825.566 171.489 825.566 171.489 826.895C171.489 826.895 171.489 826.895 172.819 826.895L182.124 833.542C182.124 833.542 182.124 833.542 183.454 833.542C183.454 833.542 183.454 833.542 184.783 833.542C184.783 833.542 184.783 833.542 186.112 833.542L222.006 784.355Z" fill="white"/>
<path d="M253.915 852.15L251.256 854.809C249.926 856.138 248.597 857.467 245.938 858.797C243.279 858.797 241.95 858.797 239.291 858.797C236.632 857.467 235.303 856.138 233.974 853.479L232.644 852.15L224.668 857.467C223.339 858.797 223.339 858.797 225.997 861.456C228.656 865.444 231.315 868.102 235.303 869.432C239.291 872.091 243.279 872.091 248.597 872.091C252.585 870.761 256.573 868.102 259.232 865.444L301.773 820.244L303.102 818.915C303.102 817.586 301.773 817.586 301.773 816.256L293.796 810.939C292.467 809.609 291.137 810.939 291.137 812.268L271.197 830.88C268.538 834.868 265.879 836.197 260.561 842.844C261.891 836.197 263.22 832.209 263.22 826.891L268.538 798.974C268.538 796.315 269.867 796.315 265.879 794.986L256.573 790.998C253.915 789.668 253.915 789.668 252.585 790.998V792.327L245.938 845.503C245.938 845.503 245.938 846.832 247.268 846.832L253.915 852.15Z" fill="white"/>
<path d="M336.333 840.173L341.65 841.503C345.638 842.832 352.285 844.162 349.627 854.797C346.968 864.102 340.321 864.102 333.674 862.773L331.015 861.444L336.333 840.173ZM327.027 873.408L332.345 874.738C346.968 878.726 360.262 872.079 364.25 858.785C365.579 856.126 365.579 852.138 365.579 848.15C365.579 844.162 362.921 841.503 360.262 838.844C356.274 834.856 350.956 832.197 344.309 830.868L327.027 825.55C327.027 825.55 327.027 825.55 325.698 825.55C325.698 825.55 325.698 825.55 324.368 825.55C324.368 825.55 324.368 825.55 323.039 825.55C323.039 825.55 323.039 825.55 323.039 826.879L303.098 896.008C303.098 897.337 303.098 898.667 304.427 898.667L315.062 901.325C316.392 901.325 317.721 901.325 317.721 899.996L327.027 873.408Z" fill="white"/>
<path d="M436.042 845.503C434.713 845.503 433.384 846.833 433.384 848.162L417.431 877.409C416.101 881.397 410.784 889.373 409.454 893.361C410.784 881.397 410.784 882.726 410.784 877.409L413.443 845.503C413.443 844.174 413.443 842.845 410.784 842.845L400.149 841.515C400.149 841.515 400.149 841.515 398.819 841.515C398.819 841.515 398.819 841.515 397.49 841.515C397.49 841.515 397.49 841.515 397.49 842.845C397.49 842.845 397.49 842.845 397.49 844.174L392.172 915.961C392.172 917.291 392.172 918.62 394.831 918.62L405.466 919.949C406.796 919.949 408.125 919.949 408.125 918.62L425.407 886.714C428.066 882.726 430.725 877.409 433.384 872.091C433.384 876.079 432.054 881.397 432.054 884.056L429.395 918.62C429.395 919.949 429.395 921.279 432.054 921.279L442.689 922.608C444.019 922.608 445.348 921.279 445.348 919.949L450.666 848.162C450.666 846.833 450.666 845.503 448.007 845.503H436.042Z" fill="white"/>
<path d="M487.882 918.613C487.882 921.271 489.212 921.271 490.541 919.942L501.176 918.613C502.506 918.613 503.835 918.613 502.506 915.954L498.517 885.378L519.788 882.719L523.776 913.295C523.776 915.954 525.105 915.954 526.435 914.625L537.07 913.295C539.729 913.295 539.728 911.966 538.399 910.636L527.764 840.179C527.764 838.849 527.764 837.52 525.105 838.849L514.47 840.179C513.141 840.179 511.811 840.179 513.141 842.837L517.129 870.755L495.859 873.413L491.87 845.496C491.87 842.837 490.541 842.837 489.212 844.167L478.576 845.496C477.247 845.496 475.918 845.496 477.247 848.155L487.882 918.613Z" fill="white"/>
<path d="M620.821 888.027L626.139 902.651C626.139 902.651 626.139 902.651 626.139 903.98C626.139 905.31 626.139 903.98 627.468 903.98C627.468 903.98 627.468 903.98 628.798 903.98C628.798 903.98 628.798 903.98 630.127 903.98L639.433 899.992C639.433 899.992 639.433 899.992 640.762 899.992C640.762 899.992 640.762 899.992 640.762 898.663C640.762 898.663 640.762 898.663 640.762 897.333C640.762 897.333 640.762 897.333 640.762 896.004L631.456 872.075C631.456 872.075 631.456 872.075 631.456 870.745C631.456 870.745 631.456 870.745 630.127 870.745C630.127 870.745 630.127 870.745 628.798 870.745C627.468 870.745 628.798 870.745 627.468 870.745L623.48 872.075L602.21 813.582C602.21 813.582 602.21 813.582 602.21 812.252C602.21 812.252 602.21 812.252 600.88 812.252C600.88 812.252 600.88 812.252 599.551 812.252C599.551 812.252 599.551 812.252 598.222 812.252L563.657 825.546C563.657 825.546 563.657 825.546 562.328 825.546C562.328 825.546 562.328 825.546 562.328 826.875C562.328 826.875 562.328 826.875 562.328 828.205C562.328 828.205 562.328 828.205 562.328 829.534L570.304 849.475C572.963 856.122 574.293 862.769 576.951 870.745C578.281 877.392 578.281 884.039 578.281 890.686L576.951 892.016C576.951 892.016 576.951 892.016 575.622 892.016C574.293 892.016 575.622 892.016 575.622 893.345C575.622 893.345 575.622 893.345 575.622 894.674C575.622 894.674 575.622 894.674 575.622 896.004L584.928 919.933C584.928 919.933 584.928 919.933 584.928 921.262C584.928 921.262 584.928 921.262 586.257 921.262C586.257 921.262 586.257 921.262 587.586 921.262C587.586 921.262 587.586 921.262 588.916 921.262L598.222 917.274C598.222 917.274 598.222 917.274 599.551 917.274C599.551 917.274 599.551 917.274 599.551 915.945C599.551 915.945 599.551 915.945 599.551 914.615C599.551 914.615 599.551 914.615 599.551 913.286L594.233 898.663L620.821 888.027ZM608.857 880.051L591.575 886.698C591.575 881.38 591.575 876.063 591.575 872.075C590.245 864.098 587.586 856.122 584.928 848.146L579.61 834.852L590.245 830.864L608.857 880.051Z" fill="white"/>
<path d="M673.997 836.18L675.326 840.168C676.655 841.498 676.655 844.157 675.326 846.815C675.326 849.474 673.997 850.804 671.338 852.133C668.679 853.462 666.02 853.462 664.691 853.462H663.361C663.361 853.462 663.361 853.462 663.361 854.792L664.691 864.097C664.691 865.427 664.691 865.427 668.679 865.427C672.667 865.427 676.655 864.097 680.643 861.439C684.632 858.78 687.29 856.121 688.62 852.133C689.949 848.145 689.949 842.827 687.29 838.839L670.008 779.016C670.008 777.687 670.008 777.687 670.008 777.687C668.679 776.358 668.679 777.687 667.35 777.687L658.044 781.675C656.714 783.005 656.714 784.334 656.714 785.663L664.691 812.251C666.02 816.239 667.35 820.228 670.008 828.204C664.691 822.886 662.032 820.228 658.044 817.569L636.774 798.957C635.444 797.628 635.444 797.628 632.785 798.957L624.809 805.604C623.48 806.934 622.15 808.263 622.15 808.263C622.15 809.592 622.15 808.263 623.48 809.592L666.02 842.827C666.02 842.827 667.35 844.157 667.35 842.827L673.997 836.18Z" fill="white"/>
<path d="M759.084 781.671H757.755C757.755 783 756.426 783 756.426 784.329C755.096 786.988 753.767 789.647 751.108 792.306C749.779 793.635 748.449 794.965 745.791 794.965C744.461 794.965 741.802 794.965 740.473 794.965C733.826 793.635 724.52 784.329 721.861 780.341C712.556 769.706 708.568 763.059 708.568 759.071C708.568 757.742 708.568 756.412 709.897 753.753C711.226 752.424 711.226 751.095 712.556 749.765C715.215 747.107 719.203 747.107 721.861 747.107C723.191 747.107 723.191 747.107 724.52 745.777V744.448L723.191 736.471V735.142C723.191 735.142 721.862 733.813 719.203 733.813C712.556 733.813 707.238 736.471 703.25 740.46C693.944 748.436 687.297 764.389 709.897 789.647C720.532 801.612 737.814 816.235 757.755 798.953C763.073 794.965 765.731 789.647 767.061 783V781.671V780.341L765.731 779.012L759.084 781.671Z" fill="white"/>
<path d="M757.755 705.91L767.06 695.275V693.945V692.616L761.743 684.639C761.743 683.31 760.414 681.981 759.084 684.639L729.838 721.862L737.814 728.509C737.814 728.509 737.814 728.509 739.143 728.509L748.449 716.545L796.307 753.768C796.307 753.768 796.307 753.768 797.636 753.768C797.636 753.768 797.636 753.768 798.966 753.768C798.966 753.768 798.966 753.768 800.295 753.768C800.295 753.768 800.295 753.768 800.295 752.438L806.942 744.462C806.942 744.462 806.942 744.462 806.942 743.133C806.942 743.133 806.942 743.133 806.942 741.803C806.942 741.803 806.942 741.803 806.942 740.474C806.942 740.474 806.942 740.474 805.613 740.474L757.755 705.91Z" fill="white"/>
<path d="M785.666 659.373L788.325 655.385C789.654 651.397 793.643 644.75 802.948 650.067C812.254 655.385 810.925 660.702 806.937 667.349L805.607 670.008L785.666 659.373ZM816.242 675.326L818.901 670.008C820.23 667.349 821.56 663.361 822.889 660.702C822.889 656.714 822.889 654.055 821.56 650.067C820.23 646.079 818.901 643.42 816.242 640.761C813.583 638.103 810.925 636.773 808.266 635.444C805.607 634.114 801.619 632.785 797.631 632.785C793.643 632.785 790.984 634.114 786.996 635.444C783.007 639.432 779.019 643.42 776.361 648.738L768.384 664.69C768.384 664.69 768.384 664.69 768.384 666.02C768.384 666.02 768.384 666.02 768.384 667.349C768.384 667.349 768.384 667.349 768.384 668.679C768.384 668.679 768.384 668.679 769.714 668.679L833.524 701.913C833.524 701.913 833.524 701.913 834.854 701.913C834.854 701.913 834.854 701.913 836.183 701.913C836.183 701.913 836.183 701.913 837.513 701.913C837.513 701.913 837.513 701.913 837.513 700.584L842.83 691.278C842.83 691.278 842.83 691.278 842.83 689.949C842.83 689.949 842.83 689.949 842.83 688.619C842.83 688.619 842.83 688.619 842.83 687.29C842.83 687.29 842.83 687.29 841.501 687.29L816.242 675.326Z" fill="white"/>
<path d="M810.928 563.662C810.928 564.992 810.928 566.321 812.257 567.65L837.516 588.921C840.174 591.579 848.151 598.226 852.139 600.885C840.174 596.897 842.833 598.226 837.516 596.897L806.94 587.591C806.94 587.591 806.94 587.591 805.61 587.591C805.61 587.591 805.61 587.591 804.281 587.591C804.281 587.591 804.281 587.591 804.281 588.921L801.622 599.556C801.622 600.885 801.622 602.214 802.951 602.214L872.08 620.826C873.409 620.826 874.738 620.826 874.738 619.497L877.397 608.861C877.397 607.532 877.397 606.203 876.068 606.203L848.151 582.274C844.162 578.285 840.174 575.627 834.857 571.638C838.845 572.968 844.162 574.297 846.821 575.627L881.385 584.932C881.385 584.932 881.385 584.932 882.715 584.932C884.044 584.932 882.715 584.932 884.044 584.932C884.044 584.932 884.044 584.932 885.374 584.932C885.374 584.932 885.374 584.932 885.374 583.603L888.032 572.968C888.032 571.638 888.032 570.309 886.703 570.309L817.575 551.698C817.575 551.698 817.575 551.698 816.245 551.698C816.245 551.698 816.245 551.698 814.916 551.698C814.916 551.698 814.916 551.698 813.586 551.698C812.257 551.698 813.586 551.698 813.586 553.027L810.928 563.662Z" fill="white"/>
<path d="M821.564 483.9C821.564 485.229 822.894 486.558 824.223 486.558L853.47 502.511C857.458 503.841 865.434 509.158 870.752 510.488C857.458 509.158 860.117 509.158 854.799 509.158L822.894 507.829C821.564 507.829 820.235 507.829 820.235 510.488V521.123C820.235 522.452 820.235 523.781 822.894 523.781L894.681 527.77C896.01 527.77 897.34 527.77 897.34 525.111V514.476C897.34 513.146 897.34 511.817 896.01 511.817L864.105 494.535C858.787 491.876 854.799 489.217 849.481 487.888C853.47 487.888 858.787 489.217 861.446 489.217L897.34 490.547C898.669 490.547 899.998 490.547 899.998 487.888V477.253C899.998 475.923 898.669 474.594 897.34 474.594L825.552 470.606C824.223 470.606 822.894 470.606 822.894 473.265L821.564 483.9Z" fill="white"/>
<path d="M210.049 490.551V257.907C240.625 257.907 317.729 259.236 378.881 259.236C440.033 259.236 451.998 331.024 450.668 366.917C454.657 364.258 470.609 362.929 477.256 361.6H567.655V445.351H501.185C489.221 445.351 466.621 462.633 466.621 487.892C466.621 507.833 489.221 518.468 501.185 522.456V455.986H723.194V545.056H666.03V689.959H555.69V602.219C486.562 618.172 434.716 603.549 417.434 594.243C333.682 558.349 342.988 470.61 358.94 432.057H317.729V490.551H210.049Z" fill="#FF4446"/>
<path d="M429.393 380.204H219.35V481.238H304.431L305.76 422.745C315.066 422.745 340.324 421.415 372.23 421.415C404.135 421.415 422.746 393.498 429.393 380.204Z" fill="white"/>
<path d="M449.333 483.904H358.935C361.593 610.196 489.215 611.525 553.026 595.572V537.079C467.945 563.667 448.004 513.15 449.333 483.904Z" fill="white"/>
<path d="M566.325 679.327V576.964H651.406V679.327H566.325Z" fill="white"/>
<path d="M305.761 372.23V325.701H337.666C341.655 327.031 345.643 331.019 348.302 335.007C350.96 338.995 352.29 344.313 352.29 348.301C352.29 353.618 350.96 357.607 348.302 362.924C345.643 366.912 341.655 370.9 337.666 373.559H305.761V372.23Z" fill="white"/>
<path d="M169.441 1059.09C169.441 1052.91 169.007 1027.32 147.378 1027.32C125.749 1027.32 125.261 1052.64 125.261 1059.09C125.261 1065.54 125.749 1090.74 147.378 1090.74C169.007 1090.74 169.441 1065.59 169.441 1059.09ZM147.378 1081.2C138.38 1081.2 137.892 1066.3 137.892 1059.09C137.892 1050.68 138.868 1036.86 147.378 1036.86C155.889 1036.86 156.865 1050.58 156.865 1059.09C156.865 1066.46 156.323 1081.37 147.378 1081.37V1081.2Z" fill="white"/>
<path d="M212.483 1078.98C212.212 1078.55 212.049 1078.11 211.344 1078.11C210.529 1078.27 209.766 1078.62 209.122 1079.14C206.947 1080.53 204.436 1081.3 201.858 1081.37C200.357 1081.42 198.864 1081.12 197.505 1080.48C196.147 1079.83 194.963 1078.88 194.052 1077.68C191.411 1071.97 190.22 1065.69 190.583 1059.41C190.583 1047.76 191.721 1042.55 194.377 1039.84C195.321 1038.9 196.448 1038.17 197.689 1037.68C198.929 1037.2 200.256 1036.97 201.587 1037.02C204.338 1037.17 206.948 1038.29 208.959 1040.17C209.463 1040.67 210.105 1041.01 210.802 1041.14C211.344 1041.14 211.507 1040.71 211.778 1040.28L215.085 1035.34C215.308 1035 215.455 1034.61 215.518 1034.21C215.518 1033.66 215.085 1032.96 213.838 1031.88C210.017 1028.95 205.316 1027.4 200.503 1027.48C191.125 1027.48 178.006 1032.91 178.006 1060.01C178.006 1072.53 180.554 1090.91 200.774 1090.91C205.71 1091.03 210.555 1089.57 214.597 1086.73C214.976 1086.73 215.681 1085.87 215.681 1085.22C215.648 1084.75 215.499 1084.31 215.247 1083.92L212.483 1078.98Z" fill="white"/>
<path d="M225.331 1087.6C225.331 1089.28 226.253 1089.39 227.12 1089.39H235.685C236.552 1089.39 237.474 1089.39 237.474 1087.6V1062.77H254.224V1087.6C254.224 1089.28 255.092 1089.39 256.013 1089.39H264.524C266.204 1089.39 266.259 1088.52 266.259 1087.6V1030.74C266.259 1029.87 266.259 1029 264.524 1029H256.013C255.092 1029 254.224 1029 254.224 1030.74V1053.23H237.474V1030.74C237.474 1029.06 236.552 1029 235.685 1029H227.174C226.307 1029 225.386 1029 225.386 1030.74L225.331 1087.6Z" fill="white"/>
<path d="M322.417 1059.09C322.417 1052.91 321.983 1027.32 300.354 1027.32C278.725 1027.32 278.291 1052.64 278.291 1059.09C278.291 1065.54 278.725 1090.74 300.354 1090.74C321.983 1090.74 322.417 1065.59 322.417 1059.09ZM300.354 1081.2C291.41 1081.2 290.868 1066.3 290.868 1059.09C290.868 1050.68 291.843 1036.86 300.354 1036.86C308.865 1036.86 309.84 1050.58 309.84 1059.09C309.895 1066.46 309.353 1081.37 300.408 1081.37L300.354 1081.2Z" fill="white"/>
<path d="M336.349 1029C335.59 1029 334.614 1029 334.614 1030.74V1087.6C334.614 1088.41 334.614 1089.39 336.349 1089.39H351.093C360.742 1089.39 373.102 1087.71 373.102 1072.69C373.376 1069.28 372.401 1065.88 370.357 1063.12C368.313 1060.37 365.339 1058.46 361.989 1057.73C364.722 1056.76 367.074 1054.95 368.702 1052.55C370.331 1050.15 371.15 1047.29 371.042 1044.4C371.123 1042.12 370.675 1039.85 369.735 1037.77C368.795 1035.69 367.387 1033.86 365.621 1032.42C361.009 1029.76 355.695 1028.56 350.388 1029H336.349ZM346.648 1053.94V1038.27H350.388C358.52 1038.27 359.062 1043.26 359.062 1045.64C359.062 1053.07 353.641 1053.94 349.413 1053.94H346.648ZM346.648 1080.12V1063.21H350.009C353.478 1063.21 361.122 1063.21 361.122 1071.77C361.122 1079.42 355.104 1080.12 349.846 1080.12H346.648Z" fill="white"/>
<path d="M399.338 1029C398.146 1029 398.092 1029.49 397.821 1030.3L380.149 1087.6C380.149 1088.14 379.661 1089.39 381.504 1089.39H390.99C392.129 1089.39 392.237 1088.96 392.562 1087.55L396.194 1073.24H411.481L415.384 1087.55C415.872 1089.28 416.143 1089.39 417.227 1089.39H427.039C427.527 1089.39 428.502 1089.39 428.502 1088.3C428.451 1087.95 428.36 1087.61 428.231 1087.27L410.83 1030.41C410.559 1029.49 410.397 1029 409.53 1029H399.338ZM409.258 1065.32H397.549L401.452 1050.14C402.54 1046.33 403.195 1042.4 403.404 1038.43H403.729C404.117 1042.38 404.768 1046.29 405.681 1050.14L409.258 1065.32Z" fill="white"/>
<path d="M437.989 1087.6C437.989 1089.28 438.857 1089.39 439.724 1089.39H448.235C449.156 1089.39 450.023 1089.39 450.023 1087.6V1062.77H466.774V1087.6C466.774 1089.28 467.641 1089.39 468.563 1089.39H477.074C478.754 1089.39 478.808 1088.52 478.808 1087.6V1030.74C478.808 1029.87 478.808 1029 477.074 1029H468.78C467.858 1029 466.991 1029 466.991 1030.74V1053.23H450.24V1030.74C450.24 1029.06 449.373 1029 448.451 1029H439.941C439.073 1029 438.206 1029 438.206 1030.74L437.989 1087.6Z" fill="white"/>
<path d="M517.025 1029C516.266 1029 515.29 1029 515.29 1030.74V1087.6C515.29 1088.41 515.29 1089.39 517.025 1089.39H531.769C541.418 1089.39 553.452 1087.71 553.452 1072.69C553.75 1069.31 552.817 1065.94 550.825 1063.19C548.834 1060.44 545.917 1058.5 542.611 1057.73C545.344 1056.76 547.696 1054.95 549.324 1052.55C550.953 1050.15 551.772 1047.29 551.663 1044.4C551.744 1042.12 551.297 1039.85 550.357 1037.77C549.416 1035.69 548.008 1033.86 546.243 1032.42C541.63 1029.76 536.317 1028.56 531.01 1029H517.025ZM527.324 1053.94V1038.27H531.064C539.196 1038.27 539.738 1043.26 539.738 1045.64C539.738 1053.07 534.317 1053.94 530.089 1053.94H527.324ZM527.324 1080.12V1063.21H530.685C534.154 1063.21 541.797 1063.21 541.797 1071.77C541.797 1079.42 535.726 1080.12 530.522 1080.12H527.324Z" fill="white"/>
<path d="M621.428 1082.4C621.428 1081.8 621.428 1081.2 620.181 1081.2H613.189V1031.98C613.189 1031.28 613.189 1030.36 611.4 1030.36H605.166L588.415 1042.39C587.819 1042.82 587.386 1043.15 587.386 1043.8C587.386 1044.2 587.499 1044.6 587.711 1044.94L590.042 1048.9C590.367 1049.49 590.584 1050.03 591.288 1050.03C591.666 1049.99 592.023 1049.84 592.318 1049.6L601.913 1043.69V1081.09H592.969C591.614 1081.09 591.722 1081.85 591.722 1082.29V1088.03C591.722 1089.39 592.535 1089.28 592.969 1089.28H620.073C621.482 1089.28 621.32 1088.68 621.32 1088.03L621.428 1082.4Z" fill="white"/>
<path d="M660.838 1066.62V1067.71C657.802 1079.69 650.376 1081.64 646.147 1081.64C644.806 1081.57 643.486 1081.28 642.245 1080.77C641.552 1080.44 640.824 1080.18 640.076 1080.01C639.841 1080.03 639.619 1080.13 639.443 1080.28C639.267 1080.44 639.147 1080.65 639.1 1080.88L637.203 1087.06C637.203 1087.66 636.77 1088.09 637.908 1088.9C640.259 1090.15 642.892 1090.76 645.551 1090.69C649.778 1090.78 653.951 1089.73 657.632 1087.65C661.313 1085.57 664.367 1082.54 666.475 1078.87C670.351 1071.38 672.219 1063.02 671.896 1054.59C672.144 1048.24 670.664 1041.95 667.614 1036.37C666.067 1033.91 663.889 1031.91 661.305 1030.57C658.722 1029.24 655.827 1028.62 652.923 1028.79C643.437 1028.79 633.842 1034.75 633.842 1051.01C633.842 1065.43 641.54 1071.45 650.105 1071.45C652.15 1071.46 654.166 1070.97 655.98 1070.02C657.793 1069.08 659.349 1067.71 660.513 1066.03L660.838 1066.62ZM652.652 1038.49C655.58 1038.49 660.567 1039.9 660.567 1050.58C660.567 1061.26 655.796 1062.39 652.598 1062.39C649.4 1062.39 644.684 1060.55 644.684 1050.58C644.684 1040.6 649.563 1038.49 652.652 1038.49Z" fill="white"/>
<path d="M710.113 1066.62V1067.71C707.077 1079.69 699.651 1081.64 695.368 1081.64C694.13 1081.62 692.903 1081.4 691.736 1080.99C691.025 1080.65 690.28 1080.4 689.514 1080.23C688.972 1080.23 688.646 1080.77 688.538 1081.09L686.695 1087.27C686.695 1087.87 686.262 1088.3 687.4 1089.12C689.751 1090.36 692.384 1090.98 695.043 1090.91C699.269 1090.99 703.439 1089.93 707.119 1087.86C710.799 1085.78 713.855 1082.75 715.967 1079.09C719.843 1071.6 721.711 1063.23 721.388 1054.8C721.631 1048.46 720.172 1042.17 717.16 1036.59C715.588 1034.14 713.397 1032.15 710.808 1030.81C708.219 1029.48 705.324 1028.86 702.415 1029C692.929 1029 683.389 1034.96 683.389 1051.23C683.389 1065.65 691.086 1071.66 699.651 1071.66C701.688 1071.67 703.697 1071.19 705.502 1070.24C707.307 1069.3 708.853 1067.92 710.005 1066.24L710.113 1066.62ZM701.873 1038.49C704.801 1038.49 709.788 1039.9 709.788 1050.58C709.788 1061.25 704.963 1062.39 701.765 1062.39C698.567 1062.39 693.905 1060.55 693.905 1050.58C693.905 1040.6 698.838 1038.49 701.873 1038.49Z" fill="white"/>
<path d="M741.989 1061.53C741.989 1063.1 742.748 1063.26 743.723 1063.26H746.488C749.524 1063.26 757.33 1063.64 757.33 1072.2C757.437 1073.51 757.252 1074.82 756.788 1076.04C756.323 1077.27 755.592 1078.37 754.646 1079.27C753.701 1080.18 752.565 1080.86 751.322 1081.27C750.08 1081.68 748.761 1081.8 747.464 1081.64C744.51 1081.64 741.591 1081.01 738.899 1079.79C737.577 1079.05 736.177 1078.45 734.725 1078.01C734.487 1078.01 734.26 1078.11 734.082 1078.26C733.904 1078.42 733.787 1078.64 733.749 1078.87L731.906 1085.43C731.906 1085.92 731.635 1086.9 734.074 1087.98C738.727 1089.8 743.662 1090.79 748.656 1090.91C751.245 1091.17 753.86 1090.88 756.327 1090.05C758.794 1089.22 761.057 1087.88 762.965 1086.11C764.873 1084.34 766.381 1082.19 767.391 1079.79C768.401 1077.39 768.889 1074.81 768.822 1072.2C768.954 1068.98 768.008 1065.81 766.132 1063.19C764.256 1060.57 761.559 1058.65 758.468 1057.73C761.039 1056.71 763.227 1054.92 764.724 1052.59C766.221 1050.27 766.953 1047.54 766.816 1044.78C766.828 1042.56 766.373 1040.37 765.48 1038.34C764.588 1036.31 763.278 1034.49 761.637 1033C759.995 1031.52 758.058 1030.39 755.952 1029.7C753.847 1029.01 751.619 1028.77 749.415 1029C746.581 1028.91 743.764 1029.48 741.193 1030.68C738.622 1031.87 736.369 1033.66 734.616 1035.89C734.092 1036.49 733.736 1037.22 733.586 1038C733.586 1038.17 733.626 1038.33 733.701 1038.48C733.776 1038.63 733.885 1038.77 734.02 1038.87L738.899 1043.2C738.899 1043.2 739.333 1043.64 739.604 1043.64C739.875 1043.64 740.905 1042.66 741.555 1041.96C743.444 1039.79 746.115 1038.47 748.982 1038.27C749.941 1038.22 750.899 1038.38 751.795 1038.72C752.69 1039.07 753.504 1039.6 754.183 1040.28C754.862 1040.96 755.391 1041.77 755.737 1042.67C756.083 1043.56 756.238 1044.52 756.191 1045.48C756.191 1049.98 754.023 1053.77 746.488 1053.77H743.561C742.585 1053.77 741.826 1053.77 741.826 1055.62L741.989 1061.53Z" fill="white"/>
</svg>
