<svg width="30" height="30" viewBox="0 0 30 30" fill="none" xmlns="http://www.w3.org/2000/svg">
<path d="M28.5541 25.1959L22.5252 19.1669C23.7709 17.2895 24.5 15.0416 24.5 12.625C24.5 6.07713 19.1729 0.75 12.625 0.75C6.07713 0.75 0.75 6.07713 0.75 12.625C0.75 19.1729 6.07713 24.5 12.625 24.5C15.0416 24.5 17.2895 23.7709 19.1669 22.5252L25.1959 28.5541C26.1221 29.4816 27.6279 29.4816 28.5541 28.5541C29.4816 27.6267 29.4816 26.1233 28.5541 25.1959ZM4.3125 12.625C4.3125 8.04125 8.04125 4.3125 12.625 4.3125C17.2087 4.3125 20.9375 8.04125 20.9375 12.625C20.9375 17.2087 17.2087 20.9375 12.625 20.9375C8.04125 20.9375 4.3125 17.2087 4.3125 12.625Z" fill="#334960"/>
</svg>
