<svg width="58" height="58" viewBox="0 0 58 58" fill="none" xmlns="http://www.w3.org/2000/svg">
<g clip-path="url(#clip0_2252_5678)">
<path d="M12.0653 0.113285C10.0036 0.441799 8.03248 1.47266 6.55982 3.01328C5.75552 3.85157 5.3024 4.53125 4.75865 5.69805C4.07896 7.15938 3.90904 7.975 3.92037 9.74219C3.93169 11.0563 3.97701 11.4074 4.23755 12.291C4.81529 14.2055 5.93677 15.9387 7.36412 17.0828C7.70396 17.366 7.99849 17.6266 8.02115 17.6605C8.03248 17.7059 7.80591 17.7965 7.51138 17.8758C6.5938 18.1137 4.97388 18.9859 3.99966 19.7676C1.91529 21.4102 0.510601 23.891 0.114117 26.5758C0.03482 27.1535 0.000835644 28.7734 0.0234919 31.1523C0.0574763 34.6641 0.0688044 34.8566 0.306695 35.3777C0.680523 36.1707 1.47349 36.9637 2.30045 37.3375L3.00279 37.666L6.80904 37.7L10.6266 37.734L10.6719 38.7195C10.7059 39.4445 10.7965 39.8523 10.9891 40.2715C11.3856 41.0984 12.2805 41.9367 13.0622 42.2313C13.7079 42.4805 13.8098 42.4805 21.3544 42.4805H28.9895L29.0235 48.8016C29.0575 55.0094 29.0575 55.1227 29.3067 55.6438C29.6465 56.3914 30.4961 57.2637 31.2551 57.6262L31.8895 57.9434H43.5008H55.1122L55.7465 57.6262C56.5055 57.2637 57.3551 56.3914 57.695 55.6438L57.9442 55.1113V42.084V29.0566L57.6497 28.4223C57.0606 27.1875 56.0864 26.4172 54.7837 26.1793C54.4098 26.1113 52.7899 26.0547 51.1247 26.0547H48.1454L48.0774 25.7375C47.2844 22.1238 44.4297 18.9859 40.986 17.9324C40.6235 17.8305 40.329 17.7059 40.329 17.6605C40.329 17.6152 40.6122 17.3773 40.9407 17.1055C42.5153 15.8934 43.7501 13.877 44.2485 11.702C44.5317 10.4672 44.509 8.50742 44.1919 7.30664C42.8665 2.27695 37.9274 -0.82695 32.909 0.215237C31.6743 0.464455 30.4735 0.962894 29.454 1.64258C28.5364 2.2543 27.1204 3.71563 26.6786 4.49727C26.3614 5.06367 26.3387 5.075 25.9536 5.00703C25.4325 4.90508 22.9403 4.90508 22.4305 5.00703C22.034 5.075 22.0114 5.06367 21.5809 4.39531C19.893 1.77852 17.061 0.181252 13.8778 0.0566444C13.2547 0.033989 12.4391 0.0566444 12.0653 0.113285ZM15.0446 2.10703C16.1661 2.3336 17.7747 3.11524 18.5676 3.81758C18.9075 4.11211 19.4059 4.65586 19.6778 5.02969L20.1762 5.69805L19.5192 6.04922C15.8149 8.03164 13.7758 12.5402 14.7387 16.6184C14.818 16.9469 14.852 17.2527 14.8067 17.2867C14.6594 17.4453 12.3938 17.366 11.6688 17.1734C8.97271 16.4938 6.77505 14.3301 6.05006 11.668C5.81216 10.7617 5.77818 8.81328 5.99341 7.92969C6.07271 7.58985 6.36724 6.83086 6.65045 6.2418C7.08091 5.34688 7.3188 5.01836 8.08912 4.24805C9.96959 2.35625 12.4844 1.58594 15.0446 2.10703ZM36.1262 2.05039C38.9243 2.50352 41.3485 4.59922 42.2094 7.30664C43.5348 11.4754 41.2012 15.8367 36.9872 17.0828C36.2961 17.2867 35.7977 17.3547 34.8801 17.3547C34.2118 17.366 33.6227 17.332 33.5661 17.298C33.4868 17.2527 33.5094 16.9922 33.6114 16.573C33.7133 16.1766 33.7813 15.3496 33.7813 14.5C33.7813 12.7441 33.5434 11.7586 32.7278 10.082C32.1954 9.01719 32.0141 8.76797 30.9946 7.75977C30.0317 6.8082 28.8536 5.93594 28.2758 5.74336C27.936 5.63008 29.8391 3.61367 30.8473 3.02461C32.4219 2.09571 34.3024 1.74453 36.1262 2.05039ZM25.8743 6.9668C27.97 7.4086 30.077 9.0625 31.0172 10.9883C31.6403 12.257 31.8669 13.1746 31.8669 14.5C31.8669 16.6184 31.1305 18.3969 29.6352 19.8922C28.1286 21.3988 26.6559 22.0672 24.5715 22.1691C20.9919 22.3617 17.9219 20.2434 16.8004 16.8223C16.5399 16.0406 16.5059 15.7234 16.5059 14.5C16.5059 13.2766 16.5399 12.9594 16.8004 12.1777C17.4801 10.116 18.8282 8.55274 20.7766 7.56719C22.2153 6.84219 24.1864 6.6043 25.8743 6.9668ZM16.0301 19.677C16.5739 20.5379 17.3555 21.4328 18.0465 21.9652C18.6696 22.441 18.7715 22.6562 18.3751 22.6562C18.2731 22.6562 17.7633 22.8375 17.2422 23.0414C14.5915 24.1402 12.3825 26.4059 11.3403 29.1133C10.8192 30.4613 10.6493 31.6055 10.6493 33.8258V35.7969H7.1149C3.90904 35.7969 3.52388 35.7742 3.10474 35.5816C2.57232 35.3324 2.19849 34.9133 2.02857 34.3355C1.94927 34.0637 1.92662 32.6816 1.94927 30.2461C2.00591 26.1453 2.02857 25.9414 2.82154 24.2988C3.87505 22.0898 5.60826 20.5605 7.98716 19.7563C8.8481 19.4617 9.02935 19.4391 11.9294 19.3711C13.5946 19.3258 14.9879 19.2578 15.0333 19.2125C15.0672 19.1785 15.2372 19.1445 15.3958 19.1445C15.6223 19.1445 15.7696 19.2691 16.0301 19.677ZM36.4208 19.3711C39.5133 19.4617 40.0004 19.5297 41.2692 20.0961C42.6965 20.7191 44.3731 22.2258 45.1887 23.5965C45.5739 24.2422 46.1063 25.5789 46.1063 25.8848C46.1063 26.032 45.3473 26.0547 40.6688 26.0547H35.2313L34.7668 25.5449C33.6907 24.3895 31.6969 23.1434 30.2129 22.7129L29.5672 22.5316L30.0997 22.1012C30.8586 21.5008 31.8215 20.4473 32.2747 19.7223C32.6485 19.1332 32.6711 19.1219 33.0676 19.2012C33.2942 19.2465 34.8008 19.3145 36.4208 19.3711ZM29.2387 24.4461C30.1676 24.6953 31.2438 25.1938 32.0481 25.7488L32.5465 26.0887L31.9348 26.2473C30.734 26.5531 29.9071 27.2555 29.352 28.4336L29.0575 29.0566L29.0235 34.8113L28.9895 40.5547L21.377 40.532L13.7645 40.498L13.3907 40.2375C13.1868 40.0902 12.9262 39.773 12.8016 39.5352C12.5864 39.116 12.5751 38.8555 12.5751 35.5816C12.5751 31.798 12.6657 30.9711 13.1754 29.6797C13.6399 28.5469 14.1723 27.7539 15.1239 26.7797C16.1547 25.7375 17.1969 25.0805 18.511 24.6387C19.859 24.1855 20.4481 24.1402 24.5829 24.1742C28.0266 24.2082 28.4571 24.2309 29.2387 24.4461ZM54.5344 28.0938C55.1462 28.2297 55.52 28.5242 55.8258 29.1133L56.0751 29.6117V42.0387C56.0751 50.5461 56.0411 54.5789 55.9504 54.7941C55.7919 55.2246 55.3047 55.7344 54.8629 55.9156C54.5571 56.0516 52.586 56.0742 43.5122 56.0742C36.0243 56.0742 32.4219 56.0402 32.2067 55.9496C31.7762 55.791 31.2665 55.3039 31.0852 54.8621C30.9493 54.5563 30.9266 52.3699 30.9266 42.05V29.6117L31.1872 29.1133C31.4704 28.5469 31.8555 28.2297 32.4106 28.0938C32.9543 27.9691 53.9907 27.9578 54.5344 28.0938Z" fill="#334960"/>
<path d="M38.1201 31.141C37.9389 31.2543 37.3271 31.8207 36.7607 32.3871L35.7525 33.418L35.5146 33.1914C35.1068 32.8063 34.6424 32.7836 34.2346 33.1348C33.9514 33.3727 33.8721 33.5313 33.8721 33.8371C33.8721 34.1656 33.9854 34.3469 34.5631 34.9473C35.3221 35.7403 35.7525 35.9328 36.1717 35.6496C36.5568 35.3891 39.2529 32.7156 39.4682 32.3758C40.0119 31.5375 38.9811 30.586 38.1201 31.141Z" fill="#334960"/>
<path d="M41.9033 33.1801C41.4841 33.6105 41.4615 34.109 41.858 34.4941L42.1298 34.7773H47.3521H52.5744L52.8462 34.4941C53.1294 34.2223 53.2087 33.7578 53.0615 33.3613C52.8689 32.8742 52.6197 32.8516 47.2955 32.8516H42.2318L41.9033 33.1801Z" fill="#334960"/>
<path d="M38.4024 36.7825C38.3118 36.8165 37.6888 37.3829 37.0317 38.0286L35.8196 39.218L35.4798 38.9688C35.004 38.6176 34.4603 38.6403 34.1317 39.0254C33.6899 39.5352 33.7806 39.9204 34.5622 40.736C35.3212 41.5176 35.5364 41.6309 36.0009 41.5176C36.3521 41.427 39.2294 38.6403 39.4899 38.1418C39.7392 37.6887 39.5919 37.1903 39.1614 36.9184C38.7876 36.6918 38.6857 36.6805 38.4024 36.7825Z" fill="#334960"/>
<path d="M42.187 38.7422C41.5639 38.9914 41.394 39.8184 41.8585 40.2715L42.1303 40.5547H47.3979H52.6655L52.8921 40.2602C53.2206 39.841 53.1979 39.2973 52.8354 38.9574L52.5409 38.6855L47.4885 38.6629C44.7018 38.6516 42.3116 38.6855 42.187 38.7422Z" fill="#334960"/>
<path d="M37.0213 43.7946L35.8205 45.0067L35.5146 44.7575C34.835 44.2364 33.8721 44.6442 33.8721 45.4599C33.8721 45.7884 33.9854 45.9583 34.6537 46.5927C35.8205 47.7255 35.7979 47.7368 37.8482 45.6864C39.6268 43.9192 39.7967 43.6587 39.4908 43.0696C39.2982 42.6958 39.1057 42.5938 38.5959 42.5938C38.29 42.5938 38.0521 42.7751 37.0213 43.7946Z" fill="#334960"/>
<path d="M41.8583 44.8027C41.4958 45.1539 41.4958 45.6523 41.8469 46.0715L42.1188 46.3887H47.3298H52.5407L52.8352 46.1168C53.2204 45.7543 53.243 45.1199 52.8692 44.7687C52.6087 44.5195 52.586 44.5195 47.3637 44.5195H42.1301L41.8583 44.8027Z" fill="#334960"/>
<path d="M37.0326 49.5832L35.7979 50.7953L35.458 50.5461C34.7557 50.025 33.8721 50.4215 33.8721 51.2598C33.8721 51.6223 33.974 51.7809 34.5971 52.4039C35.2314 53.0383 35.3787 53.1289 35.7525 53.1289C36.149 53.1289 36.285 53.0156 37.8596 51.4523C39.7514 49.5719 39.876 49.3453 39.3662 48.7336C39.1283 48.4504 38.9697 48.3711 38.6639 48.3711C38.3014 48.3711 38.1201 48.4957 37.0326 49.5832Z" fill="#334960"/>
<path d="M41.858 50.5801C41.4615 50.9652 41.4841 51.4637 41.9033 51.8941L42.2318 52.2227H47.2955C52.4724 52.2227 52.6537 52.2113 52.9822 51.7809C53.2201 51.475 53.1521 50.8859 52.8462 50.5801L52.5744 50.2969H47.3521H42.1298L41.858 50.5801Z" fill="#334960"/>
</g>
<defs>
<clipPath id="clip0_2252_5678">
<rect width="58" height="58" fill="white"/>
</clipPath>
</defs>
</svg>
