<svg width="55" height="60" viewBox="0 0 55 60" fill="none" xmlns="http://www.w3.org/2000/svg">
<path d="M51.1146 5.8409L32.8507 0.191261C31.7301 -0.148649 30.5207 -0.0323219 29.4855 0.514934C28.4502 1.06219 27.673 1.9961 27.3228 3.11349L26.641 5.30516H4.40769C3.82881 5.30497 3.25557 5.41884 2.72072 5.64028C2.18586 5.86172 1.69989 6.18638 1.29056 6.59571C0.881226 7.00504 0.556565 7.49102 0.335126 8.02587C0.113687 8.56072 -0.000189259 9.13397 2.73022e-06 9.71285V47.3609C-0.00129754 48.5325 0.46189 49.6569 1.28808 50.4876C2.11426 51.3184 3.23607 51.7877 4.40769 51.7929H13.6127C13.873 52.3274 14.241 52.8023 14.6936 53.1879C15.1462 53.5734 15.6736 53.8612 16.2427 54.0333L34.9693 59.8047C35.3941 59.9408 35.8383 60.0066 36.2843 59.9995C37.0135 60.0007 37.732 59.8252 38.3786 59.4881C38.8943 59.2103 39.3494 58.8325 39.7174 58.3767C40.0853 57.921 40.3587 57.3964 40.5215 56.8337L44.3204 44.0977V44.049L54.0612 11.3201C54.388 10.2028 54.2621 9.00184 53.7108 7.97661C53.1594 6.95139 52.2269 6.18424 51.1146 5.8409ZM4.40769 50.1126C4.04624 50.113 3.68826 50.0421 3.35424 49.904C3.02022 49.7658 2.71673 49.5632 2.46113 49.3076C2.20553 49.052 2.00285 48.7485 1.86468 48.4145C1.72652 48.0805 1.65558 47.7226 1.65593 47.3611V9.71309C1.65932 8.98432 1.95033 8.28637 2.46565 7.77105C2.98097 7.25573 3.67893 6.96472 4.40769 6.96133H30.6347C31.3585 6.96108 32.0537 7.24351 32.5723 7.74844C33.0909 8.25336 33.3917 8.94085 33.4108 9.66439L33.5325 16.7021L33.5569 18.4554L33.6056 21.2072L33.703 27.4169L33.7274 29.5112L33.7517 31.1671L33.9222 40.8591V41.054L34.0196 47.3124C34.027 47.6801 33.9604 48.0456 33.8238 48.3871C33.6872 48.7286 33.4834 49.0392 33.2245 49.3004C32.9655 49.5616 32.6567 49.7682 32.3164 49.9077C31.9761 50.0473 31.6113 50.117 31.2435 50.1129L4.40769 50.1126ZM38.9387 56.371C38.7154 57.0787 38.2266 57.6722 37.575 58.027C37.1773 58.237 36.734 58.3457 36.2843 58.3436C36.0122 58.3387 35.742 58.2977 35.4807 58.2218L16.7297 52.4504C16.3162 52.3242 15.9399 52.0984 15.6339 51.7929H31.2435C31.8335 51.79 32.4171 51.6701 32.9604 51.4402C33.5038 51.2103 33.9962 50.8749 34.4092 50.4535C34.8205 50.0368 35.1444 49.5421 35.3619 48.9985C35.5793 48.4548 35.686 47.8732 35.6755 47.2878L35.6025 42.1008L42.494 44.3656L38.9387 56.371ZM39.0604 17.9438L45.3919 26.4426L45.1727 27.2949L38.7682 22.2054C38.6585 22.1224 38.531 22.066 38.3958 22.0406C38.2605 22.0153 38.1213 22.0217 37.9889 22.0593C37.8615 22.1102 37.7472 22.1893 37.6545 22.2904C37.5617 22.3916 37.4929 22.5123 37.4532 22.6437L36.1625 27.368C36.1057 27.5621 36.1231 27.7704 36.2113 27.9524L37.9159 31.6052L37.8428 31.7756L35.4076 30.071L35.2859 22.8385L35.4807 22.108C35.5213 21.9743 35.5269 21.8325 35.4971 21.6961C35.4673 21.5597 35.4029 21.4332 35.3102 21.3287L35.2615 21.28L35.1885 17.7733L36.4791 17.2376C36.5959 17.1915 36.7005 17.1192 36.7849 17.0263C36.8694 16.9334 36.9314 16.8224 36.9662 16.7018L38.1594 12.3672C38.5977 10.7113 39.4257 10.346 39.791 10.2486C40.0588 10.5165 40.5702 11.247 40.1319 12.9029L38.9387 17.2376C38.9031 17.3567 38.8955 17.4824 38.9167 17.605C38.9378 17.7275 38.987 17.8435 39.0604 17.9438ZM52.454 10.833L42.9811 42.7583L35.5537 40.3719L35.432 32.0922L37.8672 33.8212C38.0115 33.917 38.181 33.9678 38.3542 33.9673C38.4461 33.9729 38.538 33.9562 38.6221 33.9186C38.7472 33.8752 38.8595 33.8013 38.9488 33.7035C39.0382 33.6056 39.1016 33.4871 39.1335 33.3585L39.5962 31.7513C39.6408 31.5561 39.6238 31.3519 39.5475 31.1669L37.8428 27.5141L38.7195 24.2996L45.124 29.3648C45.2338 29.4477 45.3613 29.5041 45.4965 29.5294C45.6317 29.5548 45.771 29.5484 45.9033 29.5109C46.0317 29.4687 46.1477 29.3955 46.2411 29.2978C46.3345 29.2001 46.4025 29.081 46.439 28.9508L47.0965 26.4913C47.1322 26.3722 47.1397 26.2464 47.1186 26.1239C47.0974 26.0014 47.0482 25.8854 46.9748 25.7851L40.6433 17.2863L41.7148 13.3413C42.6889 9.83461 40.4728 8.69007 40.3754 8.66572C40.2882 8.6083 40.1874 8.57472 40.0832 8.56831C39.9614 8.56831 37.5262 8.39785 36.5522 11.9289L35.4807 15.8739L35.1641 15.9956L35.0667 9.63979C35.0382 8.48231 34.559 7.38167 33.7313 6.5721C32.9035 5.76254 31.7925 5.30798 30.6347 5.30516H28.3699L28.9057 3.60052C29.0133 3.25166 29.1893 2.92771 29.4234 2.64758C29.6576 2.36746 29.9452 2.13676 30.2694 1.96895C30.6692 1.76459 31.1111 1.6562 31.56 1.65237C31.8321 1.6573 32.1023 1.69824 32.3637 1.77413L50.6276 7.42377C51.3202 7.6362 51.9008 8.11376 52.2429 8.75239C52.585 9.39102 52.6609 10.1387 52.454 10.833Z" fill="#334960"/>
<path d="M31.2399 43.8781C31.3489 43.879 31.457 43.8583 31.5579 43.817C31.6588 43.7757 31.7504 43.7148 31.8275 43.6377C31.9046 43.5606 31.9655 43.469 32.0068 43.3681C32.0481 43.2672 32.0688 43.1591 32.0679 43.0501C32.0657 42.8312 31.9777 42.6219 31.8229 42.4671C31.6681 42.3123 31.4588 42.2244 31.2399 42.2222H4.40417C4.18528 42.2244 3.97601 42.3124 3.82123 42.4672C3.66645 42.622 3.57848 42.8312 3.5762 43.0501C3.57526 43.1591 3.59603 43.2672 3.63731 43.3681C3.67858 43.469 3.73954 43.5606 3.81661 43.6377C3.89368 43.7148 3.98533 43.7757 4.08621 43.817C4.18709 43.8583 4.29517 43.879 4.40417 43.8781H31.2399Z" fill="#334960"/>
<path d="M7.34689 30.7534C8.36403 32.4308 9.77274 33.8366 11.4523 34.8503C13.1318 35.8639 15.0321 36.4552 16.9902 36.5735C17.1273 36.5937 17.2658 36.6019 17.4042 36.5979C17.4686 36.6101 17.5347 36.6101 17.599 36.5979C17.6703 36.6179 17.7443 36.6262 17.8182 36.6222C17.9643 36.6222 18.1348 36.5979 18.2809 36.5979C18.4274 36.6019 18.574 36.5938 18.7192 36.5735C20.6641 36.4414 22.5488 35.8438 24.2143 34.8309C25.8799 33.818 27.2775 32.4195 28.2895 30.7534C28.3514 30.6995 28.4012 30.6331 28.4356 30.5586C28.4356 30.5342 28.46 30.5342 28.46 30.5099C28.533 30.3881 28.5817 30.2907 28.6548 30.169C28.6548 30.1446 28.6791 30.1446 28.6791 30.1203C28.9882 29.5421 29.2489 28.9394 29.4584 28.3182C29.9091 27.0265 30.1396 25.6682 30.1403 24.3002C30.1403 23.9836 30.1159 23.667 30.0915 23.3504C30.0563 22.8022 29.983 22.257 29.8724 21.7189C29.7551 21.197 29.6005 20.6843 29.4097 20.1847C29.234 19.6673 29.0224 19.1628 28.7765 18.6749C28.6692 18.4558 28.5472 18.2443 28.4113 18.0417V18.0174C28.3766 17.9566 28.3358 17.8994 28.2895 17.8469C27.5518 16.6265 26.6036 15.5464 25.489 14.6568C25.0396 14.2907 24.5588 13.9647 24.0523 13.6827C21.2459 12.0268 17.8967 11.5532 14.7412 12.3661C11.5858 13.1789 8.88224 15.2117 7.22513 18.0174V18.0417C6.09363 19.9332 5.49609 22.0961 5.49609 24.3002C5.49609 26.5042 6.09363 28.6671 7.22513 30.5586C7.25096 30.6317 7.29253 30.6982 7.34689 30.7534ZM8.32097 19.5028C9.30202 19.9357 10.3325 20.2465 11.3893 20.4282C11.1814 21.7084 11.0756 23.0032 11.0727 24.3002C11.0745 25.5891 11.1804 26.8758 11.3893 28.1477C10.3389 28.3558 9.31125 28.6657 8.32097 29.0731C7.56852 27.5903 7.17637 25.9508 7.17637 24.288C7.17637 22.6251 7.56852 20.9857 8.32097 19.5028ZM12.7287 24.3002C12.7199 23.0995 12.8259 21.9009 13.0452 20.7204C14.3514 20.9165 15.6695 21.0223 16.9902 21.037V27.5633C15.6697 27.581 14.3517 27.6867 13.0452 27.8799C12.8259 26.6994 12.7199 25.5008 12.7287 24.3002ZM22.6155 20.7204C22.7639 21.4925 22.8615 22.2734 22.9077 23.0582C22.9077 23.4722 22.9321 23.8862 22.9321 24.3002C22.941 25.4927 22.835 26.6833 22.6155 27.8555C22.2502 27.8068 21.8606 27.7581 21.471 27.7094C20.9109 27.6607 20.3508 27.612 19.7664 27.5877C19.4011 27.5633 19.0114 27.5633 18.6462 27.5633V21.037C19.742 21.0126 20.8378 20.9396 21.8606 20.8178C22.1138 20.7988 22.3658 20.7665 22.6155 20.7204ZM16.9902 29.2192V34.7958C16.0322 34.2377 15.2127 33.4704 14.5928 32.5511C13.9729 31.6319 13.5688 30.5845 13.4105 29.4871C14.5967 29.3205 15.7925 29.2312 16.9902 29.2192ZM19.3767 34.4305C19.1491 34.5883 18.9039 34.719 18.6462 34.8202V29.2192H19.255C19.8394 29.2436 20.3995 29.2923 20.9596 29.341C21.3979 29.3897 21.8363 29.4384 22.2502 29.4871C21.879 31.4125 20.8661 33.1551 19.3767 34.4305ZM18.6462 19.3567V13.7801C19.6083 14.342 20.4318 15.113 21.0557 16.0361C21.6796 16.9593 22.0878 18.0109 22.2502 19.1132C21.0552 19.2704 19.8515 19.3516 18.6462 19.3567ZM16.9902 13.8045V19.3567C15.793 19.3525 14.5973 19.2712 13.4105 19.1132C13.5689 18.0158 13.9731 16.9684 14.593 16.0491C15.2128 15.1298 16.0323 14.3628 16.9902 13.8045ZM9.17328 30.5099C10.0118 30.1885 10.8751 29.9361 11.7546 29.755C12.1399 31.3315 12.8083 32.8249 13.7271 34.1627C11.9025 33.3863 10.327 32.1226 9.17328 30.5099ZM21.958 34.1383C22.8544 32.8088 23.5135 31.334 23.9062 29.7793C24.7788 29.945 25.6347 30.1895 26.4631 30.5099C25.3257 32.1125 23.7663 33.3687 21.958 34.1383ZM28.2165 21.938C28.3468 22.4816 28.4283 23.0358 28.46 23.5939C28.4804 23.8288 28.4885 24.0645 28.4843 24.3002C28.4841 25.9591 28.092 27.5945 27.3398 29.0731C26.3507 28.6623 25.3227 28.3523 24.2715 28.1477C24.4806 26.8759 24.5865 25.5891 24.588 24.3002C24.588 24.0323 24.588 23.7644 24.5637 23.4965V22.9121C24.4906 22.0596 24.3932 21.2317 24.2715 20.4282C24.6611 20.3551 25.0264 20.2821 25.3916 20.1847C25.3981 20.1847 25.4043 20.1821 25.4089 20.1776C25.4134 20.173 25.416 20.1668 25.416 20.1603C26.0781 20.0078 26.7228 19.7875 27.3398 19.5028C27.5617 19.9337 27.749 20.3816 27.8999 20.8422C28.0341 21.1985 28.14 21.5651 28.2165 21.938ZM23.5409 15.3143C24.0418 15.63 24.5144 15.9885 24.9533 16.3858C25.5194 16.8951 26.026 17.4669 26.4631 18.0904C25.74 18.3834 24.9895 18.6037 24.2227 18.7479C24.1253 18.7723 24.0036 18.7966 23.9062 18.821C23.7061 18.0657 23.4538 17.3253 23.1513 16.605C22.8241 15.8613 22.4244 15.1517 21.958 14.4863C22.5122 14.7082 23.0425 14.9858 23.5409 15.3143ZM13.7271 14.462C12.8113 15.7806 12.1505 17.2591 11.7789 18.821C10.8984 18.6551 10.0345 18.4106 9.19764 18.0904C10.3305 16.4736 11.9021 15.215 13.7271 14.462Z" fill="#334960"/>
</svg>
