<svg width="48" height="70" viewBox="0 0 48 70" fill="none" xmlns="http://www.w3.org/2000/svg">
<path d="M23.8151 47.6527C22.7911 47.5393 21.8294 47.1045 21.0678 46.4108C20.6054 46.0239 20.0743 45.7277 19.5022 45.5377C18.8731 45.4924 18.2414 45.5717 17.643 45.771C16.6937 46.1117 15.6609 46.1433 14.6925 45.8613C13.7984 45.3683 13.0841 44.6039 12.6527 43.6785C12.3732 43.1305 11.9927 42.6402 11.5312 42.2334C10.9744 41.955 10.3683 41.7887 9.74732 41.7441C8.73277 41.6984 7.75949 41.3291 6.9699 40.6904C6.33117 39.9008 5.9619 38.9275 5.91613 37.9129C5.87154 37.292 5.70531 36.6859 5.42689 36.1291C5.02243 35.6631 4.5317 35.2797 3.98172 35C3.05634 34.5686 2.29197 33.8543 1.79893 32.9603C1.5157 31.9915 1.54999 30.9576 1.89678 30.0097C2.09028 29.4127 2.16695 28.7841 2.12258 28.1581C1.93489 27.575 1.63296 27.0351 1.23441 26.5699C0.541652 25.8085 0.109304 24.8462 0 23.8226C0.110829 22.7994 0.542973 21.8376 1.23441 21.0753C1.63355 20.6178 1.93799 20.0857 2.13011 19.5097C2.17451 18.8812 2.09785 18.2501 1.9043 17.6506C1.54849 16.697 1.51151 15.6538 1.79893 14.6774C2.29155 13.7812 3.05581 13.0644 3.98172 12.6301C4.53106 12.3527 5.02174 11.9719 5.42689 11.5086C5.7047 10.9511 5.87332 10.3456 5.92366 9.72474C5.96358 8.71029 6.33059 7.73598 6.9699 6.94732C7.76017 6.31083 8.73352 5.94418 9.74732 5.90108C10.3682 5.85074 10.9737 5.68212 11.5312 5.40431C11.9914 5.00803 12.372 4.52781 12.6527 3.98925C13.0841 3.06387 13.7984 2.2995 14.6925 1.80645C15.6588 1.51597 16.6928 1.54235 17.643 1.88172C18.2417 2.07944 18.8736 2.1562 19.5022 2.10753C20.0758 1.9138 20.6072 1.61235 21.0678 1.21936C21.8306 0.531184 22.793 0.104062 23.8151 0C24.8399 0.110385 25.8025 0.545553 26.5624 1.24194C27.023 1.63493 27.5544 1.93638 28.128 2.13011C28.758 2.17112 29.39 2.08669 29.9871 1.88172C30.935 1.53494 31.9689 1.50065 32.9377 1.78387C33.8317 2.27692 34.546 3.04129 34.9775 3.96667C35.2549 4.516 35.6357 5.00668 36.099 5.41183C36.6565 5.68964 37.262 5.85827 37.8828 5.90861C38.8966 5.9517 39.87 6.31836 40.6603 6.95485C41.299 7.74443 41.6683 8.71771 41.714 9.73227C41.7564 10.3536 41.9228 10.9601 42.2033 11.5161C42.6064 11.9815 43.0976 12.3626 43.6484 12.6376C44.5732 13.0699 45.3374 13.784 45.8312 14.6774C46.1295 15.6646 46.0951 16.7225 45.7334 17.6882C45.5398 18.2877 45.4632 18.9189 45.5076 19.5473C45.7019 20.1094 46.0035 20.6283 46.3958 21.0753C47.0872 21.8376 47.5193 22.7994 47.6302 23.8226C47.5209 24.8462 47.0885 25.8085 46.3958 26.5699C45.9962 27.03 45.6918 27.5647 45.5001 28.143C45.4557 28.769 45.5324 29.3977 45.7259 29.9947C46.0726 30.9425 46.1069 31.9765 45.8237 32.9452C45.3351 33.8437 44.5733 34.5634 43.6484 35C43.097 35.2774 42.6059 35.6611 42.2033 36.1291C41.9233 36.6858 41.7546 37.2917 41.7065 37.9129C41.6666 38.9251 41.2995 39.897 40.6603 40.6828C39.8707 41.3216 38.8974 41.6908 37.8828 41.7366C37.2619 41.7812 36.6558 41.9474 36.099 42.2259C35.6375 42.6327 35.257 43.123 34.9775 43.671C34.546 44.5964 33.8317 45.3608 32.9377 45.8538C31.9693 46.1358 30.9365 46.1042 29.9871 45.7635C29.3883 45.5667 28.7565 45.49 28.128 45.5377C27.5542 45.7345 27.0229 46.0385 26.5624 46.4334C25.7978 47.1189 24.8364 47.5456 23.8151 47.6527ZM19.1559 43.9796C19.3707 43.9773 19.5852 43.9974 19.7957 44.0398C20.592 44.2633 21.3295 44.659 21.9559 45.199C22.475 45.6824 23.119 46.0109 23.8151 46.1474C24.5111 46.0109 25.1551 45.6824 25.6742 45.199C26.3 44.6563 27.0375 44.258 27.8344 44.0323C28.6775 43.932 29.5323 44.0142 30.3409 44.2732C30.984 44.5179 31.6827 44.5779 32.3581 44.4463C32.9399 44.0561 33.4013 43.5113 33.6904 42.8732C34.0716 42.1283 34.608 41.4739 35.2635 40.9538C35.9958 40.535 36.8095 40.2784 37.6495 40.2011C38.3499 40.1934 39.0337 39.9872 39.6216 39.6065C40.0046 39.029 40.2208 38.357 40.2463 37.6646C40.3199 36.8214 40.5768 36.0045 40.999 35.271C41.5146 34.6161 42.1671 34.0818 42.9108 33.7054C43.5333 33.4074 44.0619 32.9439 44.4388 32.3656C44.5688 31.6907 44.5115 30.9931 44.2732 30.3484C44.0108 29.5431 43.9286 28.6901 44.0323 27.8495C44.2544 27.0519 44.6473 26.3122 45.1839 25.6817C45.669 25.1638 45.9978 24.5193 46.1323 23.8226C45.9978 23.1259 45.669 22.4814 45.1839 21.9635C44.6491 21.3347 44.2562 20.5978 44.0323 19.8032C43.9289 18.9602 44.0111 18.1047 44.2732 17.2968C44.5115 16.6521 44.5688 15.9545 44.4388 15.2796C44.0538 14.6905 43.5114 14.2211 42.8732 13.9247C42.1254 13.548 41.4701 13.0108 40.9538 12.3516C40.5306 11.6213 40.2736 10.8066 40.2011 9.9656C40.1873 9.28482 39.9868 8.62089 39.6216 8.04625C39.0427 7.65921 38.3679 7.44034 37.6721 7.41399C36.832 7.33721 36.0182 7.0805 35.2861 6.6613C34.6324 6.13944 34.0963 5.48537 33.7129 4.74194C33.4267 4.10204 32.9647 3.55653 32.3807 3.16882C31.6937 3.05129 30.9875 3.12686 30.3409 3.3871C29.5328 3.64815 28.6781 3.73286 27.8344 3.63549C27.0394 3.40887 26.3026 3.01351 25.6742 2.47635C25.159 1.98305 24.5143 1.64632 23.8151 1.50538C23.1184 1.63991 22.4739 1.96869 21.9559 2.45377C21.3258 2.99247 20.5861 3.38796 19.7882 3.61291C18.9487 3.71717 18.0965 3.64017 17.2893 3.3871C16.6446 3.14874 15.947 3.09147 15.2721 3.22151C14.6902 3.61167 14.2288 4.15648 13.9398 4.79463C13.5583 5.53713 13.0218 6.18909 12.3667 6.70646C11.6359 7.12875 10.8215 7.38568 9.98066 7.45915C9.28627 7.48709 8.61248 7.70301 8.03119 8.08388C7.64682 8.66349 7.43057 9.33828 7.40646 10.0333C7.33396 10.8743 7.07697 11.689 6.65377 12.4194C6.13596 13.0475 5.49241 13.5603 4.76452 13.9247C4.12349 14.2199 3.57837 14.6894 3.1914 15.2796C3.06136 15.9545 3.11863 16.6521 3.35699 17.2968C3.61903 18.1047 3.70124 18.9602 3.59785 19.8032C3.37392 20.5978 2.9811 21.3347 2.44624 21.9635C1.96116 22.4814 1.63239 23.1259 1.49785 23.8226C1.63239 24.5193 1.96116 25.1638 2.44624 25.6817C2.98285 26.3122 3.37581 27.0519 3.59785 27.8495C3.7016 28.6901 3.61937 29.5431 3.35699 30.3484C3.11863 30.9931 3.06136 31.6907 3.1914 32.3656C3.57614 32.9494 4.11919 33.4115 4.75699 33.6979C5.50312 34.0771 6.158 34.6139 6.67635 35.271C7.09969 36.004 7.35666 36.8212 7.42904 37.6646C7.44103 38.3527 7.64149 39.0244 8.00861 39.6065C8.58682 39.9938 9.26246 40.2103 9.95808 40.2312C10.7989 40.3047 11.6133 40.5616 12.3441 40.9839C12.9996 41.504 13.536 42.1584 13.9172 42.9033C14.2036 43.5411 14.6657 44.0841 15.2495 44.4689C15.9241 44.6037 16.6231 44.5463 17.2667 44.3033C17.8811 44.1199 18.5155 44.0112 19.1559 43.9796Z" fill="#334960"/>
<path d="M23.8173 40.0657C20.6047 40.0657 17.4643 39.113 14.7931 37.3282C12.122 35.5434 10.04 33.0066 8.81065 30.0386C7.58126 27.0705 7.25959 23.8046 7.88633 20.6538C8.51307 17.5029 10.0601 14.6087 12.3317 12.3371C14.6033 10.0654 17.4976 8.51844 20.6484 7.8917C23.7992 7.26496 27.0652 7.58663 30.0332 8.81602C33.0012 10.0454 35.538 12.1273 37.3228 14.7985C39.1076 17.4696 40.0603 20.6101 40.0603 23.8226C40.0563 28.1293 38.3437 32.2585 35.2984 35.3038C32.2531 38.3491 28.124 40.0617 23.8173 40.0657ZM23.8173 9.0925C20.9021 9.0925 18.0524 9.95704 15.6287 11.5768C13.2049 13.1965 11.316 15.4986 10.2007 18.192C9.08549 20.8854 8.79407 23.8491 9.36334 26.7081C9.9326 29.5671 11.337 32.1931 13.3988 34.2539C15.4607 36.3147 18.0874 37.7177 20.9467 38.2855C23.806 38.8533 26.7695 38.5604 29.4623 37.4438C32.1552 36.3272 34.4563 34.4371 36.0748 32.0125C37.6933 29.5879 38.5564 26.7378 38.5549 23.8226C38.5489 19.9165 36.9941 16.1722 34.2313 13.4108C31.4685 10.6494 27.7234 9.09648 23.8173 9.0925Z" fill="#334960"/>
<path d="M28.5891 31.3343C28.4688 31.3348 28.35 31.3064 28.2429 31.2515L23.9149 28.9935L19.5945 31.2515C19.4693 31.3175 19.328 31.3469 19.1869 31.3362C19.0458 31.3256 18.9105 31.2753 18.7967 31.1913C18.6812 31.1067 18.5923 30.991 18.5403 30.8577C18.4883 30.7244 18.4754 30.579 18.5031 30.4386L19.301 25.644L15.8235 22.2042C15.7241 22.1057 15.6541 21.9815 15.6214 21.8454C15.5887 21.7094 15.5946 21.5669 15.6384 21.434C15.6822 21.3011 15.7621 21.183 15.8693 21.0931C15.9764 21.0031 16.1066 20.9448 16.245 20.9246L21.0773 20.2246L23.2375 15.8365C23.2991 15.7092 23.3954 15.6019 23.5152 15.5268C23.635 15.4517 23.7735 15.4119 23.9149 15.4119C24.0563 15.4119 24.1949 15.4517 24.3147 15.5268C24.4345 15.6019 24.5307 15.7092 24.5924 15.8365L26.7526 20.2472L31.5848 20.9472C31.7233 20.9673 31.8534 21.0257 31.9606 21.1156C32.0678 21.2056 32.1477 21.3237 32.1915 21.4566C32.2353 21.5895 32.2411 21.732 32.2084 21.868C32.1757 22.0041 32.1057 22.1283 32.0063 22.2268L28.5063 25.644L29.3343 30.4838C29.3612 30.6249 29.3471 30.7708 29.2937 30.9041C29.2404 31.0375 29.15 31.1528 29.0332 31.2365C28.8988 31.3141 28.7437 31.3483 28.5891 31.3343ZM17.9687 22.2042L20.6633 24.8236C20.7503 24.9097 20.8149 25.0157 20.8516 25.1324C20.8883 25.2492 20.896 25.3731 20.8741 25.4935L20.2418 29.1892L23.5687 27.473C23.6767 27.4163 23.7968 27.3867 23.9187 27.3867C24.0406 27.3867 24.1607 27.4163 24.2687 27.473L27.5805 29.2042L26.9483 25.5085C26.9272 25.3875 26.9361 25.2632 26.9742 25.1465C27.0122 25.0297 27.0783 24.924 27.1666 24.8386L29.8386 22.2042L26.1203 21.6623C25.9997 21.6442 25.8853 21.597 25.787 21.5249C25.6887 21.4528 25.6093 21.3579 25.5558 21.2483L23.8924 17.8838L22.2289 21.2483C22.1754 21.3579 22.096 21.4528 21.9977 21.5249C21.8994 21.597 21.785 21.6442 21.6644 21.6623L17.9687 22.2042Z" fill="#334960"/>
<path d="M29.4832 70H29.3176C29.18 69.9684 29.0541 69.8986 28.9543 69.7988C28.8545 69.699 28.7847 69.5731 28.7531 69.4355L23.4993 47.043C23.477 46.9442 23.4745 46.8419 23.4918 46.7421C23.509 46.6423 23.5458 46.5468 23.6 46.4612C23.6542 46.3756 23.7247 46.3015 23.8075 46.2431C23.8903 46.1847 23.9838 46.1432 24.0826 46.121C24.1815 46.0987 24.2837 46.0962 24.3836 46.1135C24.4834 46.1307 24.5788 46.1675 24.6645 46.2217C24.7501 46.2759 24.8242 46.3464 24.8826 46.4292C24.9409 46.512 24.9824 46.6055 25.0047 46.7043L29.8369 67.5538L34.3531 61.8033C34.4547 61.6764 34.5947 61.5858 34.7521 61.5451C34.9094 61.5044 35.0758 61.5158 35.2262 61.5774L42.023 64.3549L35.6025 41.4882C35.5751 41.3923 35.567 41.2919 35.5788 41.1929C35.5905 41.0939 35.6218 40.9982 35.6708 40.9113C35.7198 40.8245 35.7856 40.7483 35.8643 40.6871C35.9431 40.6259 36.0332 40.5809 36.1294 40.5548C36.2248 40.5286 36.3244 40.5214 36.4226 40.5336C36.5208 40.5459 36.6156 40.5774 36.7015 40.6264C36.7875 40.6753 36.863 40.7407 36.9237 40.8188C36.9844 40.897 37.0291 40.9863 37.0552 41.0817L43.8896 65.4764C43.9275 65.6126 43.9262 65.7566 43.886 65.8921C43.8457 66.0276 43.7682 66.1491 43.6621 66.2425C43.5561 66.336 43.4259 66.3977 43.2864 66.4206C43.147 66.4435 43.0039 66.4267 42.8735 66.3721L35.2337 63.1882L30.0778 69.714C30.0069 69.8037 29.9165 69.8761 29.8135 69.9257C29.7105 69.9752 29.5975 70.0007 29.4832 70Z" fill="#334960"/>
<path d="M21.1638 63.1432C21.0501 63.1418 20.9382 63.1147 20.8366 63.0638C20.7349 63.013 20.646 62.9398 20.5767 62.8497L15.3681 56.3239L7.51753 59.8389C7.38683 59.8966 7.24239 59.916 7.10111 59.8946C6.95982 59.8733 6.82753 59.8122 6.71968 59.7185C6.61504 59.6268 6.53783 59.508 6.49664 59.3751C6.45545 59.2422 6.45189 59.1006 6.48635 58.9658L11.2208 41.4056C11.2837 41.229 11.4102 41.0823 11.5756 40.9941C11.741 40.9059 11.9333 40.8825 12.115 40.9287C12.2967 40.9748 12.4546 41.087 12.5579 41.2434C12.6612 41.3999 12.7024 41.5892 12.6735 41.7744L8.35302 57.8067L15.2853 54.7206C15.4377 54.6526 15.6083 54.6371 15.7705 54.6766C15.9326 54.7161 16.077 54.8084 16.181 54.9389L20.7423 60.6443L23.4971 46.6894C23.5164 46.5906 23.555 46.4965 23.6106 46.4126C23.6662 46.3286 23.7378 46.2565 23.8214 46.2002C23.9049 46.1439 23.9987 46.1047 24.0974 46.0846C24.1961 46.0646 24.2977 46.0642 24.3966 46.0835C24.4954 46.1028 24.5895 46.1413 24.6735 46.197C24.7574 46.2526 24.8296 46.3242 24.8858 46.4078C24.9421 46.4913 24.9814 46.5851 25.0014 46.6838C25.0214 46.7825 25.0218 46.8841 25.0025 46.983L21.9014 62.5411C21.8728 62.6804 21.8054 62.8088 21.7068 62.9114C21.6082 63.014 21.4826 63.0865 21.3444 63.1206C21.2854 63.1354 21.2247 63.143 21.1638 63.1432Z" fill="#334960"/>
</svg>
