<svg width="47" height="62" viewBox="0 0 47 62" fill="none" xmlns="http://www.w3.org/2000/svg">
<path d="M38.2422 56.9911C38.1693 56.8608 38.0612 56.753 37.9298 56.6797C37.7985 56.6063 37.649 56.5703 37.4982 56.5757H21.8987V54.5721C28.6299 54.357 35.0123 51.5714 39.6967 46.8042C44.381 42.0371 47 35.662 47 29.027C47 22.3919 44.381 16.0168 39.6967 11.2497C35.0123 6.48252 28.6299 3.6969 21.8987 3.48177V0.842955C21.8987 0.619389 21.8086 0.40498 21.6481 0.246896C21.4877 0.0888109 21.27 0 21.0431 0C20.8162 0 20.5986 0.0888109 20.4381 0.246896C20.2776 0.40498 20.1875 0.619389 20.1875 0.842955V6.29162C20.1875 6.51518 20.2776 6.72959 20.4381 6.88768C20.5986 7.04576 20.8162 7.13457 21.0431 7.13457C21.27 7.13457 21.4877 7.04576 21.6481 6.88768C21.8086 6.72959 21.8987 6.51518 21.8987 6.29162V5.19211C28.1797 5.40171 34.1323 8.00725 38.5003 12.4588C42.8682 16.9104 45.3099 22.8598 45.3099 29.0514C45.3099 35.243 42.8682 41.1924 38.5003 45.6439C34.1323 50.0955 28.1797 52.7011 21.8987 52.9107V49.7343C27.401 49.5137 32.5964 47.1769 36.3697 43.2253C40.1431 39.2738 42.1939 34.0224 42.0819 28.5981C41.9699 23.1738 39.7041 18.0089 35.7708 14.2118C31.8374 10.4146 26.55 8.28787 21.0431 8.28787C15.5362 8.28787 10.2488 10.4146 6.31545 14.2118C2.38211 18.0089 0.116334 23.1738 0.00435602 28.5981C-0.107622 34.0224 1.94312 39.2738 5.7165 43.2253C9.48988 47.1769 14.6852 49.5137 20.1875 49.7343V56.5757H4.58807C4.4372 56.5704 4.28779 56.6064 4.15645 56.6797C4.02511 56.7531 3.91697 56.8608 3.84406 56.9911L1.71123 60.7538C1.63811 60.8804 1.59966 61.0235 1.59966 61.1692C1.59966 61.3148 1.63811 61.458 1.71123 61.5845C1.78119 61.7119 1.8852 61.8179 2.01199 61.8911C2.13877 61.9644 2.28349 62.002 2.43044 61.9999H39.6558C39.8027 62.002 39.9475 61.9644 40.0743 61.8912C40.2011 61.8179 40.3051 61.7119 40.375 61.5845C40.4462 61.4581 40.4855 61.3167 40.4899 61.1721C40.4942 61.0276 40.4633 60.8842 40.3998 60.7538L38.2422 56.9911ZM40.3998 29.0392C40.3951 33.1566 39.0406 37.1624 36.5381 40.46C34.0356 43.7576 30.5188 46.1707 26.5116 47.3398C30.058 43.8703 32.4389 37.0533 32.4389 29.0392C32.4389 21.0494 30.058 14.2325 26.5116 10.7629C30.5154 11.9299 34.0299 14.339 36.5321 17.632C39.0344 20.925 40.3911 24.9256 40.3998 29.0392ZM21.8987 10.0544C26.7844 10.934 30.7525 19.2658 30.7525 29.0392C30.7525 38.837 26.7844 47.1688 21.8987 48.024V10.0544ZM1.68643 29.0392C1.69558 24.9222 3.05516 20.9184 5.56243 17.6249C8.06971 14.3313 11.5904 11.9243 15.5994 10.7629C12.0282 14.2325 9.64735 21.0494 9.64735 29.0392C9.64735 37.0533 12.0282 43.8703 15.5994 47.3398C11.587 46.1762 8.06406 43.7654 5.55657 40.4671C3.04908 37.1689 1.69149 33.16 1.68643 29.0392ZM11.3338 29.0392C11.3338 19.2658 15.3266 10.934 20.1875 10.0544V48.024C15.3266 47.1695 11.3338 38.837 11.3338 29.0392ZM3.89366 60.3384L5.08408 58.2372H37.0021L38.1926 60.3384H3.89366Z" fill="#334960"/>
</svg>
