<svg width="22" height="23" viewBox="0 0 22 23" fill="none" xmlns="http://www.w3.org/2000/svg">
<path d="M10.2052 0.00647243C8.54239 0.165862 7.28882 0.527718 5.92755 1.22989C3.85118 2.30684 2.17545 4.01705 1.13726 6.11926C0.736636 6.92482 0.5514 7.42022 0.340317 8.21286C0.0818484 9.21227 0.00430781 9.81967 0 10.9225C0 11.4739 0.0215391 12.0683 0.0516938 12.301C0.288623 14.0672 0.840024 15.5878 1.7662 17.0094L2.07637 17.4876L1.39142 19.5079C1.01234 20.6237 0.710789 21.5369 0.719405 21.5455C0.72802 21.5542 1.66712 21.2612 2.813 20.8951C3.95888 20.5289 4.91091 20.2273 4.93245 20.2273C4.94968 20.2273 5.1263 20.3264 5.32446 20.4514C5.52262 20.572 5.93617 20.796 6.24202 20.9424C9.02918 22.2736 12.2126 22.3899 15.0644 21.2569C18.2953 19.9775 20.7766 17.1731 21.664 13.8044C21.9354 12.7705 22 12.2062 22 11.0086C22 9.81105 21.9354 9.24673 21.664 8.21286C20.6215 4.26259 17.4553 1.19112 13.4576 0.256326C12.7856 0.101244 12.0877 0.0193959 11.2391 0.00647243C10.7652 -0.0021432 10.3 -0.0021432 10.2052 0.00647243ZM7.57744 5.11554C7.65068 5.15431 7.74976 5.2577 7.80145 5.35247C7.92638 5.58078 8.97748 8.10085 9.00764 8.25593C9.04641 8.44978 8.85256 8.78149 8.42608 9.26396C7.97807 9.76798 7.8833 9.92736 7.92207 10.1083C7.9953 10.4357 8.99041 11.7582 9.60642 12.3397C10.5584 13.2401 11.9973 14.0973 12.6391 14.1447C12.9708 14.1663 13.0871 14.0758 13.5955 13.4038C13.8238 13.0979 14.065 12.7921 14.1382 12.7231C14.3019 12.5551 14.5475 12.5207 14.8275 12.6241C15.1807 12.7576 17.3476 13.813 17.5026 13.9293L17.6491 14.037L17.6233 14.4936C17.563 15.6654 17.1494 16.2728 16.0638 16.8026C15.03 17.3066 14.2201 17.2937 12.6391 16.7466C10.5111 16.01 9.38672 15.3078 7.85745 13.7699C7.09066 13.0031 6.54788 12.3527 5.92755 11.4609C4.90229 9.99629 4.51028 8.86333 4.62659 7.71315C4.72136 6.79128 5.04445 6.11064 5.69493 5.46016C6.0094 5.14569 6.41864 5.01646 7.03897 5.038C7.30174 5.04661 7.49559 5.07246 7.57744 5.11554Z" fill="white"/>
</svg>
